<svg width="268" height="226" viewBox="0 0 268 226" fill="none" xmlns="http://www.w3.org/2000/svg">
<g filter="url(#filter0_f_138_77)">
<path d="M122.326 210.5C181.391 210.5 229.274 197.109 229.274 180.591C229.274 164.073 181.391 150.682 122.326 150.682C63.2596 150.682 15.3772 164.073 15.3772 180.591C15.3772 197.109 63.2596 210.5 122.326 210.5Z" fill="#001447"/>
</g>
<path d="M199.723 39.4495C203.101 27.443 208.567 14.0521 218.652 5.93637C220.693 4.3013 223.497 2.22463 225.24 0.517944C220.478 0.637293 214.892 1.15049 210.13 1.44886C198.637 2.15302 150.635 5.1248 138.115 5.88863C129.988 6.3899 121.86 6.89116 113.732 7.39242C104.244 7.97723 96.6298 18.4441 92.4288 25.9989C87.6906 34.5323 84.9695 44.0563 83.1554 53.5923C80.6968 66.5058 77.9279 129.271 77.2834 135.072C76.1377 145.359 72.0917 161.818 59.035 161.925C64.2744 161.925 162.88 162.629 170.554 162.617C179.506 162.605 184.781 155.516 187.776 147.878C191.44 138.509 192.407 98.0258 192.896 87.5351C193.386 77.0204 198.196 44.8679 199.723 39.4495Z" fill="url(#paint0_radial_138_77)"/>
<path d="M199.723 39.4495C203.101 27.443 208.567 14.0521 218.652 5.93637C220.693 4.3013 223.497 2.22463 225.24 0.517944C220.478 0.637293 214.892 1.15049 210.13 1.44886C198.637 2.15302 150.635 5.1248 138.115 5.88863C129.988 6.3899 121.86 6.89116 113.732 7.39242C104.244 7.97723 96.6298 18.4441 92.4288 25.9989C87.6906 34.5323 84.9695 44.0563 83.1554 53.5923C80.6968 66.5058 77.9279 129.271 77.2834 135.072C76.1377 145.359 72.0917 161.818 59.035 161.925C64.2744 161.925 162.88 162.629 170.554 162.617C179.506 162.605 184.781 155.516 187.776 147.878C191.44 138.509 192.407 98.0258 192.896 87.5351C193.386 77.0204 198.196 44.8679 199.723 39.4495Z" fill="url(#paint1_linear_138_77)"/>
<path d="M167.893 169.85C162.797 168.68 159.359 165.601 156.567 161.269C154.502 158.058 152.712 154.609 152.055 150.826C151.387 146.995 152.27 144.178 155.958 142.101C152.234 142.101 45.9425 143.044 44.3432 143.056C41.0492 143.08 39.3783 146.386 39.3067 149.25C39.247 152.127 40.166 155.039 41.2759 157.676C42.8513 161.436 45.3338 164.957 48.6159 167.403C51.516 169.563 55.3113 170.852 58.9873 170.864C58.9873 170.864 171.294 171.163 171.306 171.163C169.922 170.793 169.11 170.124 167.893 169.85Z" fill="url(#paint2_linear_138_77)"/>
<mask id="mask0_138_77" style="mask-type:luminance" maskUnits="userSpaceOnUse" x="59" y="0" width="167" height="163">
<path d="M199.723 39.4495C203.101 27.443 208.567 14.0521 218.652 5.93637C220.693 4.3013 223.497 2.22463 225.24 0.517944C220.478 0.637293 214.892 1.15049 210.13 1.44886C198.637 2.15302 150.635 5.1248 138.115 5.88863C129.988 6.3899 121.86 6.89116 113.732 7.39242C104.244 7.97723 96.6298 18.4441 92.4288 25.9989C87.6906 34.5323 84.9695 44.0563 83.1554 53.5923C80.6968 66.5058 77.9279 129.271 77.2834 135.072C76.1377 145.359 72.0917 161.818 59.035 161.925C64.2744 161.925 162.88 162.629 170.554 162.617C179.506 162.605 184.781 155.516 187.776 147.878C191.44 138.509 192.407 98.0258 192.896 87.5351C193.386 77.0204 198.196 44.8679 199.723 39.4495Z" fill="white"/>
</mask>
<g mask="url(#mask0_138_77)">
<path d="M223.999 106.917C233.356 131.646 221.397 159.085 197.3 168.203C173.192 177.321 146.076 164.67 136.719 139.941C127.362 115.212 139.321 87.7739 163.417 78.6557C187.514 69.5374 214.642 82.1884 223.999 106.917Z" fill="url(#paint3_radial_138_77)"/>
</g>
<path d="M229.871 3.50167C228.952 1.31759 226.505 -0.19814 224.19 0.828259C220.048 2.66623 216.349 5.67382 213.078 9.56458C205.655 18.3725 201.311 29.9613 198.375 40.9652C195.761 50.7399 194.233 60.9203 193.326 70.9814C192.658 78.3452 192.3 85.7329 192.037 93.1206C191.667 103.504 191.5 113.911 190.951 124.282C190.533 132.219 189.805 140.92 186.762 148.343C183.205 157.032 169.433 169.193 162.522 155.946C160.732 152.52 160.899 148.642 159.61 145.097C159.216 144.011 158.536 142.829 157.438 142.34C154.454 140.979 151.673 144.417 151.256 146.983C150.313 152.902 153.846 160.445 157.713 164.825C160.338 167.809 164.193 170.124 168.096 170.852C171.438 171.473 175.34 171.007 178.515 169.778C185.998 166.89 191.309 160.123 194.424 152.962C196.931 147.174 198.231 140.717 198.947 134.475C200.511 120.929 200.32 107.228 200.797 93.6218C201.048 86.4132 201.406 79.2045 202.051 72.0197C202.886 62.6867 204.223 53.3297 206.395 44.1996C208.615 34.8546 211.992 24.6144 218.222 17.1193C220.979 13.8015 224.19 11.2116 227.937 9.54071C230.372 8.47851 230.79 5.69769 229.871 3.50167Z" fill="url(#paint4_linear_138_77)"/>
<path d="M137.089 36.3227C134.117 36.3227 131.683 33.9477 131.623 30.964C131.563 27.9445 133.962 25.4501 136.982 25.3785L171.831 24.8295C174.851 24.7698 177.345 27.1687 177.417 30.1882C177.477 33.2077 175.078 35.7021 172.058 35.7737L137.208 36.3227C137.161 36.3227 137.125 36.3227 137.089 36.3227Z" fill="url(#paint5_linear_138_77)"/>
<path d="M117.349 37.9815C121.442 37.9815 124.76 34.6633 124.76 30.57C124.76 26.4767 121.442 23.1584 117.349 23.1584C113.256 23.1584 109.937 26.4767 109.937 30.57C109.937 34.6633 113.256 37.9815 117.349 37.9815Z" fill="url(#paint6_radial_138_77)"/>
<path d="M109.305 63.5342C113.398 63.5342 116.716 60.2159 116.716 56.1226C116.716 52.0293 113.398 48.7111 109.305 48.7111C105.211 48.7111 101.893 52.0293 101.893 56.1226C101.893 60.2159 105.211 63.5342 109.305 63.5342Z" fill="url(#paint7_radial_138_77)"/>
<path d="M106.237 89.0986C110.331 89.0986 113.649 85.7804 113.649 81.6871C113.649 77.5938 110.331 74.2755 106.237 74.2755C102.144 74.2755 98.8259 77.5938 98.8259 81.6871C98.8259 85.7804 102.144 89.0986 106.237 89.0986Z" fill="url(#paint8_radial_138_77)"/>
<path d="M105.474 114.651C109.567 114.651 112.885 111.333 112.885 107.24C112.885 103.146 109.567 99.828 105.474 99.828C101.38 99.828 98.062 103.146 98.062 107.24C98.062 111.333 101.38 114.651 105.474 114.651Z" fill="url(#paint9_radial_138_77)"/>
<path d="M129.033 61.8752C126.061 61.8752 123.626 59.5001 123.567 56.5164C123.507 53.4969 125.906 51.0025 128.925 50.9309L163.775 50.37C166.795 50.2984 169.289 52.7092 169.361 55.7287C169.432 58.7482 167.022 61.2426 164.002 61.3142L129.152 61.8752C129.116 61.8752 129.081 61.8752 129.033 61.8752Z" fill="url(#paint10_linear_138_77)"/>
<path d="M125.978 87.4277C123.006 87.4277 120.571 85.0526 120.511 82.0689C120.452 79.0494 122.851 76.555 125.87 76.4834L160.72 75.9225C163.74 75.8628 166.234 78.2617 166.306 81.2812C166.365 84.3008 163.966 86.7951 160.947 86.8667L126.097 87.4277C126.049 87.4277 126.013 87.4277 125.978 87.4277Z" fill="url(#paint11_linear_138_77)"/>
<path d="M125.202 112.98C122.23 112.98 119.795 110.605 119.736 107.622C119.676 104.602 122.075 102.108 125.094 102.036L152.282 101.487C155.302 101.415 157.796 103.826 157.868 106.846C157.927 109.865 155.528 112.36 152.509 112.431L125.321 112.98C125.285 112.98 125.25 112.98 125.202 112.98Z" fill="url(#paint12_linear_138_77)"/>
<path d="M127.971 126.884L122.469 127.135C120.5 127.219 119.258 124.772 120.476 123.232L123.865 118.972C124.844 117.742 126.777 118.017 127.553 119.509L129.666 123.519C130.477 125.046 129.57 126.813 127.971 126.884Z" fill="url(#paint13_linear_138_77)"/>
<path d="M225.467 70.1699L220.693 61.9587C218.568 58.2947 213.878 57.0534 210.214 59.1898L157.02 90.125L140.598 99.6729L127.863 107.072C126.133 108.075 124.868 109.71 124.331 111.632L122.516 118.136C121.347 122.313 123.877 126.622 128.09 127.648L134.809 129.283C136.731 129.749 138.76 129.45 140.466 128.46L222.686 80.6367C226.35 78.5243 227.591 73.8339 225.467 70.1699Z" fill="url(#paint14_linear_138_77)"/>
<path d="M225.467 70.1699L220.693 61.9587C218.568 58.2947 213.878 57.0534 210.214 59.1898L157.02 90.125L140.598 99.6729L127.863 107.072C126.133 108.075 124.868 109.71 124.331 111.632L122.516 118.136C121.347 122.313 123.877 126.622 128.09 127.648L134.809 129.283C136.731 129.749 138.76 129.45 140.466 128.46L222.686 80.6367C226.35 78.5243 227.591 73.8339 225.467 70.1699Z" fill="url(#paint15_linear_138_77)"/>
<path d="M262.095 61.0159C262.095 61.0159 210.19 91.1992 210.106 91.2589C203.841 94.899 196.369 88.9674 193.529 84.6828C190.39 79.9685 188.003 69.609 195.045 65.5154C195.045 65.5154 247.081 35.2486 247.104 35.2366C254.612 30.8685 263.455 37.4326 266.045 43.221C268.253 48.1382 268.289 57.4116 262.095 61.0159Z" fill="url(#paint16_linear_138_77)"/>
<path d="M262.095 61.0159C262.095 61.0159 210.19 91.1992 210.106 91.2589C203.841 94.899 196.369 88.9674 193.529 84.6828C190.39 79.9685 188.003 69.609 195.045 65.5154C195.045 65.5154 247.081 35.2486 247.104 35.2366C254.612 30.8685 263.455 37.4326 266.045 43.221C268.253 48.1382 268.289 57.4116 262.095 61.0159Z" fill="url(#paint17_radial_138_77)"/>
<path d="M196.847 57.2086C209.032 46.5985 223.187 37.707 238.774 30.9996C242.629 29.5197 247.116 30.7131 248.692 33.482C249.014 34.043 249.348 34.592 249.671 35.1529C251.258 37.9457 249.444 41.3948 245.708 43.018C230.205 49.7015 216.11 58.4498 203.936 68.8331C201 71.3514 197.109 70.8262 195.092 67.5561C193.075 64.2979 193.792 59.6075 196.847 57.2086Z" fill="url(#paint18_radial_138_77)"/>
<defs>
<filter id="filter0_f_138_77" x="0.477198" y="135.782" width="243.697" height="89.6175" filterUnits="userSpaceOnUse" color-interpolation-filters="sRGB">
<feFlood flood-opacity="0" result="BackgroundImageFix"/>
<feBlend mode="normal" in="SourceGraphic" in2="BackgroundImageFix" result="shape"/>
<feGaussianBlur stdDeviation="7.45" result="effect1_foregroundBlur_138_77"/>
</filter>
<radialGradient id="paint0_radial_138_77" cx="0" cy="0" r="1" gradientUnits="userSpaceOnUse" gradientTransform="translate(-201.675 75.4434) scale(448.271 448.271)">
<stop offset="0.6262" stop-color="#BED8D9"/>
<stop offset="0.6284" stop-color="#C1DADB"/>
<stop offset="0.6485" stop-color="#D7E7E9"/>
<stop offset="0.6705" stop-color="#E7F1F3"/>
<stop offset="0.6955" stop-color="#F0F6F9"/>
<stop offset="0.7302" stop-color="#F3F8FB"/>
<stop offset="0.8171" stop-color="#F3F8FB"/>
<stop offset="0.8246" stop-color="#F3F8FB"/>
<stop offset="0.8491" stop-color="#EAF3F5"/>
<stop offset="0.8889" stop-color="#D2E4E6"/>
<stop offset="0.9152" stop-color="#BED8D9"/>
<stop offset="0.9464" stop-color="#B9D2D3"/>
<stop offset="0.9878" stop-color="#ABC1C4"/>
<stop offset="1" stop-color="#A6BBBE"/>
</radialGradient>
<linearGradient id="paint1_linear_138_77" x1="142.134" y1="0.531431" x2="142.134" y2="162.624" gradientUnits="userSpaceOnUse">
<stop stop-color="#BED8D9"/>
<stop offset="0.2142" stop-color="#F3F8FB"/>
<stop offset="0.8243" stop-color="#BED8D9"/>
<stop offset="0.9143" stop-color="#B2CACC"/>
<stop offset="0.9878" stop-color="#A6BBBE"/>
</linearGradient>
<linearGradient id="paint2_linear_138_77" x1="105.318" y1="135.899" x2="105.318" y2="179.389" gradientUnits="userSpaceOnUse">
<stop stop-color="#BED8D9"/>
<stop offset="0.026935" stop-color="#C2DBDC"/>
<stop offset="0.174" stop-color="#D6E7E9"/>
<stop offset="0.2746" stop-color="#DDEBEE"/>
<stop offset="0.3967" stop-color="#D4E6E8"/>
<stop offset="0.5844" stop-color="#BED8D9"/>
<stop offset="0.695" stop-color="#AECCD1"/>
<stop offset="0.9099" stop-color="#85ACBB"/>
<stop offset="0.9983" stop-color="#729EB1"/>
</linearGradient>
<radialGradient id="paint3_radial_138_77" cx="0" cy="0" r="1" gradientUnits="userSpaceOnUse" gradientTransform="translate(180.354 123.43) rotate(-20.7207) scale(46.6596 47.8692)">
<stop offset="0.2813" stop-color="#729EB1"/>
<stop offset="1" stop-color="#ABC0C3"/>
</radialGradient>
<linearGradient id="paint4_linear_138_77" x1="257.614" y1="7.79956" x2="137.442" y2="173.275" gradientUnits="userSpaceOnUse">
<stop stop-color="#E3ECF1"/>
<stop offset="0.0364725" stop-color="#D5E4E8"/>
<stop offset="0.0911852" stop-color="#C8DDDF"/>
<stop offset="0.1616" stop-color="#C0D9DA"/>
<stop offset="0.3014" stop-color="#BED8D9"/>
<stop offset="0.3956" stop-color="#ABC9CF"/>
<stop offset="0.5863" stop-color="#79A3B5"/>
<stop offset="0.6111" stop-color="#729EB1"/>
<stop offset="0.6764" stop-color="#93B7C2"/>
<stop offset="0.7683" stop-color="#BED8D9"/>
<stop offset="0.8702" stop-color="#C0D9DB"/>
<stop offset="0.9269" stop-color="#C8DEE0"/>
<stop offset="0.9722" stop-color="#D6E5E9"/>
<stop offset="1" stop-color="#E3ECF1"/>
</linearGradient>
<linearGradient id="paint5_linear_138_77" x1="154.514" y1="21.5472" x2="154.514" y2="42.4006" gradientUnits="userSpaceOnUse">
<stop offset="0.1413" stop-color="#A6BBBE"/>
<stop offset="0.1587" stop-color="#A9BEC1"/>
<stop offset="0.2752" stop-color="#B8D1D3"/>
<stop offset="0.3567" stop-color="#BED8D9"/>
<stop offset="0.4731" stop-color="#BAD3D5"/>
<stop offset="0.6036" stop-color="#AFC6C8"/>
<stop offset="0.6766" stop-color="#A6BBBE"/>
<stop offset="0.7373" stop-color="#9CAFB2"/>
<stop offset="0.8458" stop-color="#809093"/>
<stop offset="0.8983" stop-color="#717F82"/>
</linearGradient>
<radialGradient id="paint6_radial_138_77" cx="0" cy="0" r="1" gradientUnits="userSpaceOnUse" gradientTransform="translate(116.196 29.3001) scale(9.25312 9.25312)">
<stop stop-color="#67BF67"/>
<stop offset="1" stop-color="#48A153"/>
</radialGradient>
<radialGradient id="paint7_radial_138_77" cx="0" cy="0" r="1" gradientUnits="userSpaceOnUse" gradientTransform="translate(107.721 54.72) scale(9.9819)">
<stop stop-color="#67BF67"/>
<stop offset="1" stop-color="#48A153"/>
</radialGradient>
<radialGradient id="paint8_radial_138_77" cx="0" cy="0" r="1" gradientUnits="userSpaceOnUse" gradientTransform="translate(104.655 80.2735) scale(9.9819)">
<stop stop-color="#67BF67"/>
<stop offset="1" stop-color="#48A153"/>
</radialGradient>
<radialGradient id="paint9_radial_138_77" cx="0" cy="0" r="1" gradientUnits="userSpaceOnUse" gradientTransform="translate(103.889 105.827) scale(9.9819 9.9819)">
<stop stop-color="#67BF67"/>
<stop offset="1" stop-color="#48A153"/>
</radialGradient>
<linearGradient id="paint10_linear_138_77" x1="146.466" y1="44.806" x2="146.466" y2="67.9066" gradientUnits="userSpaceOnUse">
<stop offset="0.1413" stop-color="#A6BBBE"/>
<stop offset="0.1587" stop-color="#A9BEC1"/>
<stop offset="0.2752" stop-color="#B8D1D3"/>
<stop offset="0.3567" stop-color="#BED8D9"/>
<stop offset="0.4731" stop-color="#BAD3D5"/>
<stop offset="0.6036" stop-color="#AFC6C8"/>
<stop offset="0.6766" stop-color="#A6BBBE"/>
<stop offset="0.7373" stop-color="#9CAFB2"/>
<stop offset="0.8458" stop-color="#809093"/>
<stop offset="0.8983" stop-color="#717F82"/>
</linearGradient>
<linearGradient id="paint11_linear_138_77" x1="143.401" y1="71.9144" x2="143.401" y2="92.1415" gradientUnits="userSpaceOnUse">
<stop offset="0.1413" stop-color="#A6BBBE"/>
<stop offset="0.1587" stop-color="#A9BEC1"/>
<stop offset="0.2752" stop-color="#B8D1D3"/>
<stop offset="0.3567" stop-color="#BED8D9"/>
<stop offset="0.4731" stop-color="#BAD3D5"/>
<stop offset="0.6036" stop-color="#AFC6C8"/>
<stop offset="0.6766" stop-color="#A6BBBE"/>
<stop offset="0.7373" stop-color="#9CAFB2"/>
<stop offset="0.8458" stop-color="#809093"/>
<stop offset="0.8983" stop-color="#717F82"/>
</linearGradient>
<linearGradient id="paint12_linear_138_77" x1="138.802" y1="96.1358" x2="138.802" y2="119.318" gradientUnits="userSpaceOnUse">
<stop offset="0.1413" stop-color="#A6BBBE"/>
<stop offset="0.1587" stop-color="#A9BEC1"/>
<stop offset="0.2752" stop-color="#B8D1D3"/>
<stop offset="0.3567" stop-color="#BED8D9"/>
<stop offset="0.4731" stop-color="#BAD3D5"/>
<stop offset="0.6036" stop-color="#AFC6C8"/>
<stop offset="0.6766" stop-color="#A6BBBE"/>
<stop offset="0.7373" stop-color="#9CAFB2"/>
<stop offset="0.8458" stop-color="#809093"/>
<stop offset="0.8983" stop-color="#717F82"/>
</linearGradient>
<linearGradient id="paint13_linear_138_77" x1="122.895" y1="121.024" x2="126.427" y2="126.647" gradientUnits="userSpaceOnUse">
<stop stop-color="#E8C7FC"/>
<stop offset="0.3172" stop-color="#CF8AFF"/>
<stop offset="1" stop-color="#9A6CF0"/>
</linearGradient>
<linearGradient id="paint14_linear_138_77" x1="165.799" y1="82.6028" x2="181.626" y2="109.244" gradientUnits="userSpaceOnUse">
<stop stop-color="#8856ED"/>
<stop offset="0.1001" stop-color="#8D5DEE"/>
<stop offset="0.3853" stop-color="#9A6CF0"/>
<stop offset="0.4946" stop-color="#9262EF"/>
<stop offset="0.6777" stop-color="#7E49EA"/>
<stop offset="0.8778" stop-color="#6125E5"/>
</linearGradient>
<linearGradient id="paint15_linear_138_77" x1="116.698" y1="127.724" x2="201.439" y2="78.7459" gradientUnits="userSpaceOnUse">
<stop offset="0.0767988" stop-color="#CF8AFF"/>
<stop offset="0.0871529" stop-color="#C584FC"/>
<stop offset="0.1159" stop-color="#AD77F5"/>
<stop offset="0.1427" stop-color="#9F6FF1"/>
<stop offset="0.1656" stop-color="#9A6CF0"/>
<stop offset="0.5485" stop-color="#9667EF"/>
<stop offset="0.6561" stop-color="#9363EE"/>
<stop offset="0.7703" stop-color="#8856EC"/>
<stop offset="0.8869" stop-color="#7741E9"/>
<stop offset="1" stop-color="#6125E5"/>
</linearGradient>
<linearGradient id="paint16_linear_138_77" x1="220.654" y1="48.803" x2="240.846" y2="82.1262" gradientUnits="userSpaceOnUse">
<stop offset="0.038321" stop-color="#6125E5"/>
<stop offset="0.059559" stop-color="#692FE7"/>
<stop offset="0.1292" stop-color="#7E4AEB"/>
<stop offset="0.2001" stop-color="#8E5DEE"/>
<stop offset="0.2725" stop-color="#9768EF"/>
<stop offset="0.3485" stop-color="#9A6CF0"/>
<stop offset="0.5212" stop-color="#8957ED"/>
<stop offset="0.8469" stop-color="#6125E5"/>
</linearGradient>
<radialGradient id="paint17_radial_138_77" cx="0" cy="0" r="1" gradientUnits="userSpaceOnUse" gradientTransform="translate(264.176 39.9143) rotate(-38.843) scale(89.1749 89.1749)">
<stop stop-color="#6125E5"/>
<stop offset="0.0508683" stop-color="#6429E6"/>
<stop offset="0.1043" stop-color="#6F36E8"/>
<stop offset="0.1589" stop-color="#7F4BEB"/>
<stop offset="0.214" stop-color="#9768EF"/>
<stop offset="0.2205" stop-color="#9A6CF0"/>
<stop offset="0.8475" stop-color="#9667EF"/>
<stop offset="0.8727" stop-color="#A570F3"/>
<stop offset="0.9338" stop-color="#C383FC"/>
<stop offset="0.968" stop-color="#CF8AFF"/>
</radialGradient>
<radialGradient id="paint18_radial_138_77" cx="0" cy="0" r="1" gradientUnits="userSpaceOnUse" gradientTransform="translate(290.169 159.266) rotate(138.514) scale(140.155 140.155)">
<stop offset="0.8211" stop-color="#6125E5"/>
<stop offset="0.8391" stop-color="#6529E6"/>
<stop offset="0.8572" stop-color="#7134E9"/>
<stop offset="0.8753" stop-color="#8546EE"/>
<stop offset="0.8935" stop-color="#A260F4"/>
<stop offset="0.9116" stop-color="#C681FD"/>
<stop offset="0.9158" stop-color="#CF8AFF"/>
<stop offset="0.9511" stop-color="#B77DF8"/>
<stop offset="1" stop-color="#9A6CF0"/>
</radialGradient>
</defs>
</svg>
