<svg xmlns="http://www.w3.org/2000/svg"
    xmlns:xlink="http://www.w3.org/1999/xlink">
    <symbol id="eye" width="24" height="24" viewBox="0 0 24 24" fill="none"
        xmlns="http://www.w3.org/2000/svg">
        <path d="M2 12C2 12 5 5 12 5C19 5 22 12 22 12C22 12 19 19 12 19C5 19 2 12 2 12Z" stroke="#ABAEB8" stroke-width="2" stroke-linecap="round" stroke-linejoin="round"/>
        <path d="M12 15C13.6569 15 15 13.6569 15 12C15 10.3431 13.6569 9 12 9C10.3431 9 9 10.3431 9 12C9 13.6569 10.3431 15 12 15Z" stroke="#ABAEB8" stroke-width="2" stroke-linecap="round" stroke-linejoin="round"/>
    </symbol>

    <symbol id="hideeye" width="24" height="24" viewBox="0 0 24 24" fill="none"
        xmlns="http://www.w3.org/2000/svg">
        <path d="M2 12C2 12 5 5 12 5C19 5 22 12 22 12C22 12 19 19 12 19C5 19 2 12 2 12Z" stroke="#ABAEB8" stroke-width="2" stroke-linecap="round" stroke-linejoin="round"/>
        <path d="M12 15C13.6569 15 15 13.6569 15 12C15 10.3431 13.6569 9 12 9C10.3431 9 9 10.3431 9 12C9 13.6569 10.3431 15 12 15Z" stroke="#ABAEB8" stroke-width="2" stroke-linecap="round" stroke-linejoin="round"/>
        <line x1="4.08699" y1="3.79387" x2="21.1298" y2="20.8367" stroke="white" stroke-width="2"/>
        <line x1="2.94441" y1="4.44475" x2="19.9873" y2="21.4876" stroke="#ABAEB8" stroke-width="2"/>
    </symbol>

    <symbol id="triangle" width="9" height="12" viewBox="0 0 9 12" fill="none"
        xmlns="http://www.w3.org/2000/svg">
        <path d="M1.12248 5.18932L7.41451 0.645077C8.07584 0.167451 9 0.639986 9 1.45576V10.5442C9 11.36 8.07584 11.8325 7.41451 11.3549L1.12248 6.81068C0.5698 6.41152 0.569799 5.58848 1.12248 5.18932Z" fill="#EAEEFF"/>
    </symbol>

    <symbol id="check" width="15" height="12" viewBox="0 0 15 12" fill="none"
        xmlns="http://www.w3.org/2000/svg">
        <path d="M1.3772 5.21429L5.66291 9.5L13.6629 1.5" stroke="#00FF75" stroke-width="3"/>
    </symbol>
    <symbol id="disc-fill" width="11" height="11" viewBox="0 0 11 11" fill="none"
        xmlns="http://www.w3.org/2000/svg">
        <rect x="0.377197" y="0.5" width="10" height="10" rx="5" fill="white"/>
    </symbol>
    <symbol id="disc" width="11" height="11" viewBox="0 0 11 11" fill="none"
        xmlns="http://www.w3.org/2000/svg">
        <circle opacity="0.2" cx="5.3772" cy="5.5" r="5" fill="white"/>
    </symbol>




    <symbol id="backarrow" width="19" height="13" viewBox="0 0 19 13" fill="none"
        xmlns="http://www.w3.org/2000/svg">
        <path d="M0.203681 7.07901L4.49285 12.1735C4.85118 12.567 5.41583 12.5989 5.78503 12.3011C6.16508 12.0033 6.21937 11.3971 5.91533 11.0355L2.86405 7.40871H18.077C18.5874 7.40871 19 7.00456 19 6.50468C19 6.00481 18.5874 5.60065 18.077 5.60065H2.86405L5.91533 1.97389C6.21937 1.60165 6.15422 1.00605 5.78503 0.697615C5.41583 0.378545 4.79689 0.46363 4.49285 0.825242L0.203681 5.93036C-0.0786438 6.31324 -0.0569265 6.70676 0.203681 7.07901Z" fill="#211F31"/>
    </symbol>
    <symbol id="success" width="116" height="107" viewBox="0 0 116 107" fill="none"
        xmlns="http://www.w3.org/2000/svg">
        <path d="M52.1065 0.537576C48.2484 0.63538 44.3719 1.15182 40.5602 2.10813C12.2282 9.21712 -5.00818 38.0874 2.10081 66.4193C9.20969 94.7513 38.0376 111.988 66.3696 104.879C94.7015 97.77 111.938 68.9419 104.829 40.61C104.749 40.0429 104.551 39.499 104.247 39.0137C103.943 38.5284 103.54 38.1126 103.064 37.7934C102.589 37.4743 102.052 37.259 101.487 37.1614C100.923 37.0639 100.345 37.0863 99.7895 37.2273C99.2345 37.3684 98.7154 37.6248 98.2661 37.9798C97.8168 38.3349 97.4474 38.7807 97.1819 39.2881C96.9164 39.7955 96.7609 40.3531 96.7254 40.9246C96.6898 41.4962 96.7752 42.0688 96.9758 42.6052C103.013 66.6647 88.4341 90.9462 64.3744 96.9832C40.3149 103.02 15.9909 88.4838 9.95399 64.4241C3.91714 40.3646 18.4956 16.0406 42.5553 10.0038C55.4611 6.76545 69.1184 9.42155 79.8686 17.2627C80.2915 17.6454 80.79 17.9352 81.332 18.1131C81.8739 18.2911 82.4472 18.3533 83.0147 18.2958C83.5822 18.2382 84.1313 18.0622 84.6265 17.779C85.1217 17.4959 85.5519 17.112 85.8894 16.6521C86.2268 16.1922 86.464 15.6666 86.5855 15.1092C86.707 14.5519 86.7102 13.9753 86.5948 13.4167C86.4795 12.858 86.2481 12.3298 85.9157 11.8662C85.5834 11.4027 85.1574 11.0141 84.6654 10.7255C75.1405 3.77788 63.6806 0.242534 52.1065 0.537576ZM111.197 4.03657C110.141 4.10058 109.152 4.57241 108.438 5.35242C93.9869 20.4719 72.484 45.3355 57.2854 61.3678L37.1642 43.624C36.7628 43.2672 36.2951 42.9929 35.7878 42.8169C35.2804 42.6409 34.7434 42.5665 34.2073 42.598C33.6712 42.6296 33.1466 42.7665 32.6634 43.0007C32.1802 43.235 31.7478 43.5622 31.3911 43.9636C31.0343 44.3649 30.7601 44.8326 30.5841 45.3399C30.408 45.8473 30.3337 46.3844 30.3652 46.9205C30.3967 47.4565 30.5336 47.9812 30.7678 48.4644C31.0021 48.9476 31.3293 49.3799 31.7307 49.7367L54.8233 70.1125C55.6094 70.8136 56.6364 71.183 57.6889 71.1434C58.7415 71.1039 59.7378 70.6583 60.4691 69.9002C75.6514 54.0159 99.2917 26.6965 114.296 10.9983C114.883 10.4159 115.278 9.66873 115.431 8.85609C115.583 8.04345 115.484 7.20372 115.148 6.4484C114.812 5.69308 114.254 5.05782 113.548 4.62705C112.843 4.19627 112.023 3.99038 111.197 4.03657Z" fill="#149258"/>
    </symbol>
    <symbol id="notvalid" width="128" height="128" viewBox="0 0 128 128" fill="none"
        xmlns="http://www.w3.org/2000/svg">
        <g clip-path="url(#clip0_307_6953)">
            <path d="M62.4937 21.5867H54.4937V54.8667H32.667V62.8667H62.4937V21.5867Z" fill="#B37CFF"/>
            <path d="M114.066 68.2267C116.271 56.2439 114.587 43.8699 109.259 32.9125C103.931 21.955 95.2393 12.9883 84.4529 7.32222C73.6665 1.6561 61.351 -0.412511 49.3053 1.41857C37.2596 3.24966 26.1151 8.88448 17.4997 17.4999C8.88424 26.1153 3.24941 37.2599 1.41833 49.3055C-0.412755 61.3512 1.65586 73.6668 7.32197 84.4532C12.9881 95.2395 21.9548 103.932 32.9122 109.259C43.8697 114.587 56.2436 116.272 68.2265 114.067C71.035 117.84 74.6231 120.964 78.7467 123.226C82.8704 125.489 87.4329 126.837 92.124 127.179C96.8151 127.521 101.525 126.849 105.933 125.208C110.341 123.567 114.344 120.996 117.67 117.67C120.996 114.345 123.567 110.341 125.208 105.933C126.848 101.525 127.521 96.8154 127.179 92.1242C126.837 87.4331 125.489 82.8706 123.226 78.747C120.964 74.6233 117.84 71.0352 114.066 68.2267ZM57.8932 107.013C48.1781 107.013 38.6813 104.133 30.6035 98.7352C22.5258 93.3378 16.23 85.6663 12.5122 76.6908C8.79442 67.7153 7.82168 57.8389 9.71698 48.3106C11.6123 38.7822 16.2905 30.0299 23.1601 23.1603C30.0296 16.2908 38.782 11.6125 48.3103 9.71723C57.8387 7.82192 67.7151 8.79466 76.6906 12.5124C85.6661 16.2302 93.3376 22.526 98.7349 30.6038C104.132 38.6815 107.013 48.1784 107.013 57.8934C107.023 59.9341 106.907 61.9736 106.666 64.0001C100.701 61.5754 94.1527 60.9635 87.8411 62.2408C81.5295 63.5181 75.7346 66.6279 71.1812 71.1814C66.6277 75.7348 63.5178 81.5298 62.2405 87.8414C60.9632 94.153 61.5752 100.701 63.9998 106.667C61.9733 106.908 59.9339 107.023 57.8932 107.013ZM94.4531 119.227C89.5529 119.227 84.7627 117.773 80.6884 115.051C76.6142 112.328 73.4389 108.458 71.5643 103.931C69.6897 99.4032 69.1999 94.4214 70.1568 89.6154C71.1138 84.8095 73.4745 80.3954 76.9405 76.9313C80.4064 73.4672 84.8219 71.1088 89.6283 70.1545C94.4347 69.2001 99.4162 69.6926 103.943 71.5697C108.469 73.4467 112.337 76.6241 115.058 80.6998C117.778 84.7755 119.229 89.5665 119.226 94.4667C119.216 101.03 116.604 107.322 111.963 111.963C107.322 116.604 101.03 119.216 94.4665 119.227H94.4531Z" fill="#DEBFFA"/>
            <circle cx="94" cy="94.5" r="28.5" stroke="#F5C8DF" stroke-width="9"/>
            <path d="M98.4668 77.2935H90.4668V102.293H98.4668V77.2935Z" fill="#D93C65"/>
            <path d="M98.4668 105.293H90.4668V112.96H98.4668V105.293Z" fill="#D93C65"/>
        </g>
        <defs>
            <clipPath id="clip0_307_6953">
                <rect width="128" height="128" fill="white"/>
            </clipPath>
        </defs>
    </symbol>
    <symbol id='loader'
        xmlns="http://www.w3.org/2000/svg" viewBox="0 0 200 200">
        <radialGradient id="a8" cx=".66" fx=".66" cy=".3125" fy=".3125" gradientTransform="scale(1.5)">
            <stop offset="0" stop-color="#F85C47"></stop>
            <stop offset=".3" stop-color="#F85C47" stop-opacity=".9"></stop>
            <stop offset=".6" stop-color="#F85C47" stop-opacity=".6"></stop>
            <stop offset=".8" stop-color="#F85C47" stop-opacity=".3"></stop>
            <stop offset="1" stop-color="#F85C47" stop-opacity="0"></stop>
        </radialGradient>
        <circle transform-origin="center" fill="none" stroke="url(#a8)" stroke-width="21" stroke-linecap="round" stroke-dasharray="200 1000" stroke-dashoffset="0" cx="100" cy="100" r="70">
            <animateTransform type="rotate" attributeName="transform" calcMode="spline" dur="2" values="360;0" keyTimes="0;1" keySplines="0 0 1 1" repeatCount="indefinite"></animateTransform>
        </circle>
        <circle transform-origin="center" fill="none" opacity=".2" stroke="#F85C47" stroke-width="21" stroke-linecap="round" cx="100" cy="100" r="70"></circle>
    </symbol>
    <symbol id='loader-white'
        xmlns="http://www.w3.org/2000/svg" viewBox="0 0 200 200">
        <radialGradient id="a8" cx=".66" fx=".66" cy=".3125" fy=".3125" gradientTransform="scale(1.5)">
            <stop offset="0" stop-color="#FFFFFF"></stop>
            <stop offset=".3" stop-color="#FFFFFF" stop-opacity=".9"></stop>
            <stop offset=".6" stop-color="#FFFFFF" stop-opacity=".6"></stop>
            <stop offset=".8" stop-color="#FFFFFF" stop-opacity=".3"></stop>
            <stop offset="1" stop-color="#FFFFFF" stop-opacity="0"></stop>
        </radialGradient>
        <circle transform-origin="center" fill="none" stroke="url(#a8)" stroke-width="21" stroke-linecap="round" stroke-dasharray="200 1000" stroke-dashoffset="0" cx="100" cy="100" r="70">
            <animateTransform type="rotate" attributeName="transform" calcMode="spline" dur="2" values="360;0" keyTimes="0;1" keySplines="0 0 1 1" repeatCount="indefinite"></animateTransform>
        </circle>
        <circle transform-origin="center" fill="none" opacity=".2" stroke="#FFFFFF" stroke-width="21" stroke-linecap="round" cx="100" cy="100" r="70"></circle>
    </symbol>
    <!-- DASHBOARD-->
    <symbol id="dashboard" width="44" height="44" viewBox="0 0 44 44" fill="none"
        xmlns="http://www.w3.org/2000/svg">
        <rect width="44" height="43.9998" rx="10" fill="#718BD3"/>
        <g opacity="0.8">
            <path d="M18.68 11H13C11.8954 11 11 11.8954 11 13V18.66C11 19.7646 11.8954 20.66 13 20.66H18.68C19.7846 20.66 20.68 19.7646 20.68 18.66V13C20.68 11.8954 19.7846 11 18.68 11Z" fill="white"/>
            <path d="M18.68 23.3398H13C11.8954 23.3398 11 24.2353 11 25.3398V30.9998C11 32.1044 11.8954 32.9998 13 32.9998H18.68C19.7846 32.9998 20.68 32.1044 20.68 30.9998V25.3398C20.68 24.2353 19.7846 23.3398 18.68 23.3398Z" fill="white"/>
            <path d="M31.0003 11H25.3203C24.2157 11 23.3203 11.8954 23.3203 13V18.66C23.3203 19.7646 24.2157 20.66 25.3203 20.66H31.0003C32.1049 20.66 33.0003 19.7646 33.0003 18.66V13C33.0003 11.8954 32.1049 11 31.0003 11Z" fill="white"/>
            <path d="M31.0003 23.3398H25.3203C24.2157 23.3398 23.3203 24.2353 23.3203 25.3398V30.9998C23.3203 32.1044 24.2157 32.9998 25.3203 32.9998H31.0003C32.1049 32.9998 33.0003 32.1044 33.0003 30.9998V25.3398C33.0003 24.2353 32.1049 23.3398 31.0003 23.3398Z" fill="white"/>
        </g>
    </symbol>
    <symbol id="shield" width="20" height="24" viewBox="0 0 20 24" fill="none"
        xmlns="http://www.w3.org/2000/svg">
        <path opacity="0.9" d="M19.9362 3.70179C19.9299 3.57312 19.8744 3.4521 19.7816 3.36476C19.6888 3.27743 19.5661 3.23075 19.4399 3.23477C17.4786 3.26918 13.5996 2.93489 10.3132 0.118017C10.2259 0.0418531 10.1149 0 10 0C9.88514 0 9.77406 0.0418531 9.68678 0.118017C6.40042 2.93489 2.52135 3.26918 0.560132 3.23477C0.43392 3.23075 0.311204 3.27743 0.218383 3.36476C0.125563 3.4521 0.0700563 3.57312 0.0638042 3.70179C-0.124126 8.65221 -0.0181141 14.93 2.09248 17.8796C4.29946 20.9767 8.92061 23.6067 10 24C11.0794 23.6018 15.7005 20.9717 17.9075 17.8796C20.0181 14.93 20.1241 8.65221 19.9362 3.70179ZM14.2501 9.5371L9.34465 15.0332C9.27727 15.107 9.19609 15.1664 9.10588 15.2078C9.01568 15.2491 8.91828 15.2717 8.81941 15.2741H8.80978C8.71332 15.2739 8.61791 15.2537 8.52929 15.2148C8.44068 15.176 8.3607 15.1192 8.29417 15.0479L5.76435 12.413C5.63016 12.2728 5.55604 12.084 5.5583 11.8881C5.56056 11.6922 5.63901 11.5052 5.77639 11.3683C5.91378 11.2314 6.09884 11.1558 6.29088 11.1581C6.48291 11.1604 6.66618 11.2404 6.80037 11.3806L8.7905 13.4601L13.1804 8.54406C13.31 8.40147 13.4895 8.31684 13.68 8.3086C13.8704 8.30035 14.0564 8.36915 14.1973 8.50003C14.3383 8.63091 14.423 8.81328 14.4329 9.00749C14.4427 9.2017 14.3771 9.39203 14.2501 9.5371Z" fill="#EBF1FF"/>
    </symbol>
    <symbol id="policy" width="20" height="24" viewBox="0 0 24 24" fill="none"
        xmlns="http://www.w3.org/2000/svg">
        <path opacity="0.9" fill-rule="evenodd" clip-rule="evenodd" d="M21.963 10.6331V9.294C21.963 9.14405 22.125 9.05095 22.2543 9.12684L22.9613 9.54122C23.106 9.62624 23.2385 9.72272 23.3574 9.82964C23.4539 9.91648 23.4396 10.0703 23.3293 10.1384L22.258 10.7977C22.1286 10.8772 21.9628 10.7846 21.9628 10.6329L21.963 10.6331ZM7.04483 15.6365L0.294947 11.4827C0.165598 11.4035 0 11.4958 0 11.6476V21.7195C0 21.9909 0.0479844 22.2517 0.135869 22.4932C0.184635 22.627 0.354145 22.6645 0.454808 22.5641L7.08056 15.9382C7.16923 15.8493 7.15175 15.7022 7.04483 15.6365ZM6.61115 10.7067C6.22936 10.7067 5.91981 10.3971 5.91981 10.0151C5.91981 9.63301 6.22936 9.32347 6.61115 9.32347H17.3834C17.7654 9.32347 18.075 9.63328 18.075 10.0151C18.075 10.3968 17.7654 10.7067 17.3834 10.7067H6.61089H6.61115ZM20.3814 4.84063C20.488 4.84063 20.5746 4.92747 20.5746 5.03413V11.5367C20.5746 11.6048 20.5428 11.6629 20.4857 11.6997L15.862 14.6653C15.7848 14.7149 15.6859 14.7042 15.6207 14.6392L14.5945 13.6133C13.1644 12.1832 10.8351 12.1832 9.40519 13.6133L8.3704 14.6481C8.30625 14.7125 8.2095 14.7237 8.13204 14.676L3.60561 11.8906C3.54667 11.8544 3.51355 11.7952 3.51355 11.7258V2.2808C3.51355 1.02539 4.53922 0 5.79437 0L15.4538 0.0049548C15.5602 0.0049548 15.6473 0.0917951 15.6473 0.198455V2.20074C15.6473 3.63947 16.819 4.83541 18.2445 4.8375L20.3811 4.84037L20.3814 4.84063ZM17.0357 1.05591V2.23047C17.0357 3.06158 17.7787 3.45249 18.2899 3.45249H19.6152C19.7917 3.45249 19.876 3.2363 19.7466 3.1166L17.3609 0.913779C17.2368 0.799296 17.0357 0.886658 17.0357 1.05591ZM2.12487 10.6331V9.294C2.12487 9.14405 1.96293 9.05095 1.83358 9.12684L1.12685 9.54122C0.981854 9.62624 0.849636 9.72272 0.730718 9.82964C0.634228 9.91648 0.64831 10.0703 0.758883 10.1384L1.83019 10.7977C1.95954 10.8772 2.12513 10.7846 2.12513 10.6329L2.12487 10.6331ZM16.9035 15.9223L23.5452 22.5641C23.6459 22.6645 23.8156 22.627 23.8641 22.4932C23.952 22.2512 24 21.9909 24 21.7195V11.5119C24 11.4183 24.0008 11.331 23.8959 11.2754C23.8328 11.2418 23.7614 11.2449 23.7011 11.2838L16.9361 15.6229C16.8316 15.6899 16.8159 15.8349 16.9035 15.9228V15.9223ZM1.50655 23.8644C1.37303 23.8159 1.33522 23.6459 1.43588 23.5457L10.3868 14.5949C11.2742 13.7075 12.725 13.7075 13.6124 14.5949L22.5636 23.5457C22.664 23.6461 22.6264 23.8159 22.4927 23.8644C22.2509 23.9523 21.9901 24 21.7187 24H2.28056C2.00934 24 1.7483 23.952 1.50655 23.8644ZM6.61063 7.61483H17.3829C17.7649 7.61483 18.0745 7.30502 18.0745 6.92323C18.0745 6.54145 17.7649 6.23164 17.3829 6.23164H6.61089C6.2291 6.23164 5.91955 6.54145 5.91955 6.92323C5.91955 7.30502 6.22884 7.61483 6.61063 7.61483Z" fill="#EBF1FF"/>
    </symbol>
    <symbol id="document" width="20" height="24" viewBox="0 0 18 22" fill="none"
        xmlns="http://www.w3.org/2000/svg">
        <g opacity="0.9">
            <path d="M12.7632 5.78947H17.9737L12.1843 0V5.21053C12.1843 5.36405 12.2453 5.51138 12.3538 5.61993C12.4624 5.72848 12.6097 5.78947 12.7632 5.78947Z" fill="#EBF1FF"/>
            <path d="M10.4474 5.21053V0H2.34211C1.72802 0 1.13896 0.243985 0.704517 0.678195C0.270306 1.11266 0.0263214 1.70171 0.0263214 2.31579V19.6842C0.0263214 20.2983 0.270306 20.8874 0.704517 21.3218C1.13899 21.756 1.72803 22 2.34211 22H15.6579C16.272 22 16.861 21.756 17.2955 21.3218C17.7297 20.8873 17.9737 20.2983 17.9737 19.6842V7.52632H12.7632C12.1491 7.52632 11.56 7.28233 11.1256 6.84812C10.6914 6.41365 10.4474 5.82461 10.4474 5.21053ZM4.6579 10.4211H9.86842C10.2822 10.4211 10.6645 10.6418 10.8712 11C11.078 11.3582 11.078 11.7997 10.8712 12.1579C10.6645 12.5161 10.2822 12.7368 9.86842 12.7368H4.6579C4.24411 12.7368 3.86186 12.5161 3.6551 12.1579C3.44833 11.7997 3.44833 11.3582 3.6551 11C3.86186 10.6418 4.24412 10.4211 4.6579 10.4211ZM15.0789 16.2105C15.0789 16.5176 14.957 16.8122 14.7399 17.0293C14.5227 17.2464 14.2281 17.3684 13.9211 17.3684H4.6579C4.24411 17.3684 3.86186 17.1477 3.6551 16.7895C3.44833 16.4312 3.44833 15.9898 3.6551 15.6316C3.86186 15.2734 4.24412 15.0526 4.6579 15.0526H13.9211C14.2281 15.0526 14.5227 15.1746 14.7399 15.3917C14.957 15.6088 15.0789 15.9035 15.0789 16.2105Z" fill="#EBF1FF"/>
        </g>
    </symbol>
    <symbol id="bellicon" width="20" height="22" viewBox="0 0 20 22" fill="none"
        xmlns="http://www.w3.org/2000/svg">
        <path d="M0.910853 17.1812C1.38908 17.7819 2.10602 18.1265 2.87707 18.1265H5.3152C5.70231 20.3237 7.62074 22 9.92712 22C12.2335 22 14.1519 20.3237 14.539 18.1265H17.0058C17.7769 18.1265 18.4938 17.7819 18.972 17.1812C19.4503 16.5804 19.6253 15.8046 19.4527 15.0534L18.563 11.1548C18.4628 10.716 18.0235 10.4403 17.5875 10.5417C17.4574 10.5714 17.3485 10.637 17.2528 10.7173C17.0259 10.9075 16.9043 11.2089 16.9748 11.5173L17.8644 15.4179C17.9257 15.6828 17.8644 15.9558 17.6973 16.1658C17.5302 16.3759 17.278 16.4968 17.0058 16.4968H2.87707C2.60493 16.4968 2.35269 16.3759 2.18559 16.1658C2.01849 15.9558 1.95722 15.6828 2.01849 15.4171L3.23753 10.0965C3.42293 9.2976 3.54866 8.48597 3.6696 7.7006L3.79055 6.92636C4.24172 4.19865 6.46894 2.07567 9.207 1.76336C9.37166 1.74461 9.50897 1.66692 9.62709 1.56796C9.82975 1.39807 9.95612 1.14394 9.92394 0.861411C9.87301 0.415014 9.47356 0.0899634 9.02239 0.144072C5.56421 0.538748 2.75214 3.21832 2.18241 6.66258L2.05828 7.45273C1.93733 8.24288 1.82195 8.98926 1.65007 9.73007L0.43024 15.0518C0.25757 15.8046 0.432627 16.5804 0.910853 17.1812ZM9.92712 20.3704C8.52472 20.3704 7.35223 19.416 6.99316 18.1265H12.8611C12.502 19.416 11.3295 20.3704 9.92712 20.3704Z" fill="white"/>
        <path d="M15.8527 8.14447C15.8773 8.14492 15.901 8.14814 15.9256 8.14814C18.1721 8.14814 19.9997 6.32056 19.9997 4.07424C19.9997 1.82758 18.1721 0 15.9256 0C13.9044 0 12.2269 1.48111 11.91 3.41416C11.8747 3.62956 11.8516 3.84901 11.8516 4.07424C11.8516 6.29596 13.6402 8.10505 15.8527 8.14447Z" fill="#E40000"/>
    </symbol>
    <symbol id='profile' width="40" height="40" viewBox="0 0 40 40" fill="none"
        xmlns="http://www.w3.org/2000/svg"
        xmlns:xlink="http://www.w3.org/1999/xlink">
        <circle cx="20" cy="20" r="20" fill="url(#pattern0_526_648)"/>
        <defs>
            <pattern id="pattern0_526_648" patternContentUnits="objectBoundingBox" width="1" height="1">
                <use xlink:href="#image0_526_648" transform="scale(0.00909091)"/>
            </pattern>

        </defs>
    </symbol>
    <symbol id="arrowdown" width="14" height="9" viewBox="0 0 14 9" fill="none"
        xmlns="http://www.w3.org/2000/svg">
        <path d="M13 1L7 7L1 1" stroke="white" stroke-width="2"/>
    </symbol>

    <symbol id='search-icon' width="18" height="17" viewBox="0 0 18 17" fill="none"
        xmlns="http://www.w3.org/2000/svg">
        <path d="M7.64634 13.0563C9.06062 13.0573 10.4334 12.578 11.5399 11.6969L15.3416 15.5L16.3651 14.4762L12.5633 10.6731C13.4448 9.55823 13.9221 8.17715 13.917 6.75573C13.9119 5.33431 13.4248 3.95669 12.5354 2.8482C11.6459 1.7397 10.4067 0.965963 9.02053 0.653536C7.63435 0.341109 6.18321 0.50849 4.90448 1.1283C3.62575 1.74811 2.59512 2.78365 1.98117 4.06556C1.36723 5.34746 1.20631 6.79983 1.52474 8.18511C1.84317 9.57038 2.6221 10.8066 3.73411 11.6914C4.84613 12.5763 6.22541 13.0575 7.64634 13.0563ZM7.64634 1.94881C8.60116 1.94881 9.53454 2.23205 10.3284 2.76271C11.1224 3.29336 11.7411 4.04761 12.1065 4.93006C12.4719 5.81251 12.5675 6.78353 12.3812 7.72034C12.195 8.65714 11.7352 9.51765 11.06 10.193C10.3849 10.8684 9.52465 11.3284 8.58817 11.5147C7.65169 11.7011 6.68101 11.6054 5.79887 11.2399C4.91673 10.8744 4.16275 10.2554 3.63228 9.46122C3.10181 8.66704 2.81867 7.73333 2.81867 6.77817C2.81867 5.49735 3.3273 4.26898 4.23266 3.3633C5.13803 2.45762 6.36596 1.94881 7.64634 1.94881Z" fill="white" stroke="white"/>
    </symbol>
    <symbol id="rightarrow" width="8" height="13" viewBox="0 0 8 13" fill="none"
        xmlns="http://www.w3.org/2000/svg">
        <path d="M1 1.60107L6 6.60107L1 11.6011" stroke="#3689F5" stroke-width="2"/>
    </symbol>

    <symbol id='greenpen' width="14" height="15" viewBox="0 0 14 15" fill="none"
        xmlns="http://www.w3.org/2000/svg">
        <path d="M9.11668 1.05934L9.11048 1.06465C8.96442 1.19392 8.81392 1.32672 8.65017 1.47371L8.64486 1.47814L7.95702 2.10855L7.95171 2.11297C6.83278 3.15244 1.64354 8.35332 0.588397 9.51861C0.36001 9.77891 0.225443 10.1092 0.205977 10.4554C0.17411 10.9131 0.136044 11.3762 0.0988629 11.8242C0.0652235 12.2324 0.0333563 12.6185 0.00591268 12.9974V12.9983C-0.0294966 13.3711 0.0953207 13.7412 0.348493 14.0165C0.602556 14.2919 0.961952 14.446 1.33642 14.4398C1.37183 14.4398 1.40724 14.4398 1.44353 14.4362C1.82242 14.4097 2.20837 14.3778 2.61558 14.3441C3.0644 14.307 3.52736 14.268 3.98769 14.237H3.98858C4.33381 14.2166 4.66225 14.0812 4.9225 13.8536C6.08569 12.7982 11.2873 7.60783 12.3266 6.48878L12.3319 6.48347L12.9604 5.7964L12.9649 5.79108C13.1109 5.62817 13.2446 5.47765 13.3738 5.33068L13.3791 5.32537C14.0059 4.59933 14.2644 3.20037 13.6474 2.27059V2.2697C13.6456 2.26705 13.6438 2.2635 13.6421 2.25996C13.2508 1.68622 12.755 1.19037 12.1814 0.799914L12.1726 0.793716C11.2431 0.175688 9.84254 0.433353 9.11668 1.05934ZM3.84506 12.5599C3.38296 12.5918 2.92265 12.6299 2.47648 12.6671C2.21356 12.6883 1.95952 12.7113 1.71252 12.729C1.732 12.4811 1.75324 12.2279 1.77449 11.964C1.81167 11.5187 1.84973 11.0591 1.8816 10.5961C2.85536 9.53799 6.82644 5.54481 8.52087 3.89786V3.89697C9.2388 4.52649 9.91422 5.20207 10.5436 5.92015C8.89534 7.61396 4.90292 11.5887 3.84506 12.5599ZM11.2394 2.19176C11.636 2.46181 11.9777 2.80358 12.2477 3.20025C12.3752 3.40035 12.3247 3.96878 12.1078 4.22201C11.9839 4.36279 11.8564 4.50711 11.7165 4.66471L11.6962 4.68685H11.6953C11.088 4.00155 10.44 3.35253 9.75487 2.74425L9.777 2.72477C9.9328 2.58399 10.078 2.45561 10.2196 2.33253C10.4719 2.11471 11.0394 2.06338 11.2394 2.19176Z" fill="#48A153"/>
    </symbol>


    <symbol id="redeye" width="21" height="15" viewBox="0 0 21 15" fill="none"
        xmlns="http://www.w3.org/2000/svg">
        <g clip-path="url(#clip0_639_3400)">
            <path d="M19.7146 6.77019C19.8832 7.04003 20.0127 7.2692 20.1043 7.43994C20.0127 7.61068 19.8832 7.83985 19.7146 8.10969C19.3271 8.72964 18.7378 9.55652 17.9334 10.3815C16.3262 12.03 13.8952 13.6399 10.5 13.6399C7.10483 13.6399 4.67383 12.03 3.06655 10.3815C2.26224 9.55652 1.6729 8.72964 1.28543 8.10969C1.11678 7.83985 0.987287 7.61068 0.895747 7.43994C0.987287 7.2692 1.11678 7.04003 1.28543 6.77019C1.6729 6.15024 2.26224 5.32336 3.06655 4.49842C4.67383 2.84993 7.10483 1.23994 10.5 1.23994C13.8952 1.23994 16.3262 2.84993 17.9334 4.49842C18.7378 5.32336 19.3271 6.15024 19.7146 6.77019Z" stroke="#F47960" stroke-width="1.6" stroke-linecap="round" stroke-linejoin="round"/>
            <path d="M12.7882 7.43994C12.7882 9.02814 11.6726 10.1399 10.5 10.1399C9.32738 10.1399 8.21174 9.02814 8.21174 7.43994C8.21174 5.85174 9.32738 4.73994 10.5 4.73994C11.6726 4.73994 12.7882 5.85174 12.7882 7.43994Z" stroke="#F47960" stroke-width="1.6" stroke-linecap="round" stroke-linejoin="round"/>
        </g>
        <defs>
            <clipPath id="clip0_639_3400">
                <rect width="21" height="14" fill="white" transform="translate(0 0.439941)"/>
            </clipPath>
        </defs>
    </symbol>



    <symbol id='download' width="16" height="17" viewBox="0 0 16 17" fill="none"
        xmlns="http://www.w3.org/2000/svg">
        <path d="M8.83334 9.34492V1.35677C8.83334 0.896537 8.46024 0.523438 8 0.523438C7.53977 0.523438 7.16667 0.896537 7.16667 1.35677V9.34492L4.42259 6.60085C4.09715 6.2754 3.56952 6.2754 3.24409 6.60085C2.91864 6.92629 2.91864 7.45392 3.24409 7.77935L8 12.5353L12.756 7.77935C13.0813 7.45392 13.0813 6.92629 12.756 6.60085C12.4305 6.27542 11.9028 6.27542 11.5773 6.60085L8.83334 9.34492Z" fill="#3689F5"/>
        <path d="M0.888889 11.3569C1.3798 11.3569 1.77778 11.73 1.77778 12.1903V13.5236C1.77778 14.1679 2.33493 14.6903 3.02222 14.6903H12.9778C13.6651 14.6903 14.2222 14.1679 14.2222 13.5236V12.1903C14.2222 11.73 14.6203 11.3569 15.1111 11.3569C15.602 11.3569 16 11.73 16 12.1903V13.5236C16 15.0884 14.6469 16.3569 12.9778 16.3569H3.02222C1.3531 16.3569 0 15.0884 0 13.5236V12.1903C0 11.73 0.397973 11.3569 0.888889 11.3569Z" fill="#3689F5"/>
    </symbol>

    <symbol id='sorticon' width="8" height="15" viewBox="0 0 8 15" fill="none"
        xmlns="http://www.w3.org/2000/svg">
        <path d="M4.02295 0.843262L7.3475 5.85324H0.698393L4.02295 0.843262Z" fill="#FFFFFF"/>
        <path d="M4.16113 14.2031L0.83658 9.19314L7.48569 9.19315L4.16113 14.2031Z" fill="#FFFFFF"/>
    </symbol>

    <symbol id='empty-table' width="108" height="68" viewBox="0 0 108 68" fill="none"
        xmlns="http://www.w3.org/2000/svg">
        <path d="M89.8724 19.8491H0.00170898V0.631348H89.8724V19.8491Z" fill="white"/>
        <path d="M11.6469 15.1221C14.3419 15.1221 16.5266 12.9365 16.5266 10.2403C16.5266 7.54409 14.3419 5.3584 11.6469 5.3584C8.95197 5.3584 6.76727 7.54409 6.76727 10.2403C6.76727 12.9365 8.95197 15.1221 11.6469 15.1221Z" fill="#718BD3"/>
        <path d="M22.9166 6.98535C22.7009 6.98535 22.494 7.07108 22.3415 7.22366C22.189 7.37625 22.1033 7.58321 22.1033 7.799C22.1033 8.01479 22.189 8.22175 22.3415 8.37433C22.494 8.52692 22.7009 8.61264 22.9166 8.61264H82.2951C82.5105 8.61213 82.7169 8.52619 82.869 8.37365C83.0211 8.22112 83.1065 8.01446 83.1065 7.799C83.1065 7.58354 83.0211 7.37688 82.869 7.22435C82.7169 7.07181 82.5105 6.98586 82.2951 6.98535H22.9166Z" fill="#718BD3"/>
        <path d="M22.9166 11.8677C22.7009 11.8672 22.4939 11.9525 22.341 12.1048C22.1882 12.257 22.1021 12.4638 22.1016 12.6796C22.1012 12.8954 22.1864 13.1025 22.3386 13.2554C22.4908 13.4084 22.6975 13.4945 22.9132 13.495H60.4529C60.5598 13.4951 60.6657 13.4742 60.7646 13.4334C60.8634 13.3926 60.9532 13.3327 61.0289 13.2571C61.1045 13.1816 61.1646 13.0918 61.2055 12.993C61.2465 12.8942 61.2676 12.7883 61.2676 12.6813C61.2676 12.5744 61.2465 12.4684 61.2055 12.3696C61.1646 12.2708 61.1045 12.1811 61.0289 12.1055C60.9532 12.0299 60.8634 11.97 60.7646 11.9292C60.6657 11.8884 60.5598 11.8675 60.4529 11.8677H22.9166Z" fill="#718BD3"/>
        <path d="M89.8724 19.8491H0.00170898V0.631348H89.8724V19.8491ZM1.37378 18.4764H88.5003V2.00404H1.37378V18.4764Z" fill="#718BD3"/>
        <path d="M89.8724 43.8711H0.00170898V24.6533H89.8724V43.8711Z" fill="white"/>
        <path d="M11.6469 39.1441C14.3419 39.1441 16.5266 36.9584 16.5266 34.2622C16.5266 31.5661 14.3419 29.3804 11.6469 29.3804C8.95197 29.3804 6.76727 31.5661 6.76727 34.2622C6.76727 36.9584 8.95197 39.1441 11.6469 39.1441Z" fill="#D5DBEB"/>
        <path d="M22.9166 31.0078C22.7009 31.0078 22.494 31.0935 22.3415 31.2461C22.189 31.3987 22.1033 31.6057 22.1033 31.8215C22.1033 32.0372 22.189 32.2442 22.3415 32.3968C22.494 32.5494 22.7009 32.6351 22.9166 32.6351H82.2951C82.5105 32.6346 82.7169 32.5486 82.869 32.3961C83.0211 32.2436 83.1065 32.0369 83.1065 31.8215C83.1065 31.606 83.0211 31.3993 82.869 31.2468C82.7169 31.0943 82.5105 31.0083 82.2951 31.0078H22.9166Z" fill="#D5DBEB"/>
        <path d="M22.9166 35.8897C22.7009 35.8892 22.4939 35.9745 22.341 36.1267C22.1882 36.279 22.1021 36.4858 22.1016 36.7016C22.1012 36.9174 22.1864 37.1245 22.3386 37.2774C22.4908 37.4303 22.6975 37.5165 22.9132 37.5169H60.4529C60.5598 37.5171 60.6657 37.4962 60.7646 37.4554C60.8634 37.4146 60.9532 37.3547 61.0289 37.2791C61.1045 37.2035 61.1646 37.1138 61.2055 37.015C61.2465 36.9162 61.2676 36.8103 61.2676 36.7033C61.2676 36.5963 61.2465 36.4904 61.2055 36.3916C61.1646 36.2928 61.1045 36.2031 61.0289 36.1275C60.9532 36.0519 60.8634 35.992 60.7646 35.9512C60.6657 35.9104 60.5598 35.8895 60.4529 35.8897H22.9166Z" fill="#D5DBEB"/>
        <path d="M89.8724 43.8711H0.00170898V24.6533H89.8724V43.8711ZM1.37378 42.4984H88.5003V26.026H1.37378V42.4984Z" fill="#D5DBEB"/>
        <path d="M89.8724 67.8935H0.00170898V48.6758H89.8724V67.8935Z" fill="white"/>
        <path d="M11.6469 63.1666C14.3419 63.1666 16.5266 60.9809 16.5266 58.2847C16.5266 55.5885 14.3419 53.4028 11.6469 53.4028C8.95197 53.4028 6.76727 55.5885 6.76727 58.2847C6.76727 60.9809 8.95197 63.1666 11.6469 63.1666Z" fill="#D5DBEB"/>
        <path d="M22.9166 55.0303C22.7009 55.0303 22.494 55.116 22.3415 55.2686C22.189 55.4212 22.1033 55.6281 22.1033 55.8439C22.1033 56.0597 22.189 56.2667 22.3415 56.4193C22.494 56.5718 22.7009 56.6576 22.9166 56.6576H82.2951C82.5105 56.6571 82.7169 56.5711 82.869 56.4186C83.0211 56.266 83.1065 56.0594 83.1065 55.8439C83.1065 55.6285 83.0211 55.4218 82.869 55.2693C82.7169 55.1167 82.5105 55.0308 82.2951 55.0303H22.9166Z" fill="#D5DBEB"/>
        <path d="M22.9166 59.9116C22.7009 59.9112 22.4939 59.9965 22.341 60.1487C22.1882 60.301 22.1021 60.5078 22.1016 60.7236C22.1012 60.9393 22.1864 61.1465 22.3386 61.2994C22.4908 61.4523 22.6975 61.5385 22.9132 61.5389H60.4529C60.5598 61.5391 60.6657 61.5182 60.7646 61.4774C60.8634 61.4366 60.9532 61.3767 61.0289 61.3011C61.1045 61.2255 61.1646 61.1358 61.2055 61.037C61.2465 60.9381 61.2676 60.8322 61.2676 60.7253C61.2676 60.6183 61.2465 60.5124 61.2055 60.4136C61.1646 60.3148 61.1045 60.225 61.0289 60.1495C60.9532 60.0739 60.8634 60.014 60.7646 59.9732C60.6657 59.9324 60.5598 59.9114 60.4529 59.9116H22.9166Z" fill="#D5DBEB"/>
        <path d="M89.8724 67.8935H0.00170898V48.6758H89.8724V67.8935ZM1.37378 66.5208H88.5003V50.0485H1.37378V66.5208Z" fill="#D5DBEB"/>
        <path d="M101.953 16.2799C105.292 16.2799 107.998 13.5721 107.998 10.2318C107.998 6.89145 105.292 4.18359 101.953 4.18359C98.6141 4.18359 95.9075 6.89145 95.9075 10.2318C95.9075 13.5721 98.6141 16.2799 101.953 16.2799Z" fill="#718BD3"/>
        <path d="M101.377 12.785L99.5674 10.4576L100.62 9.6388L101.476 10.7408L104.371 7.68408L105.339 8.6015L101.377 12.785Z" fill="white"/>
    </symbol>


</svg>