<svg width="229" height="225" viewBox="0 0 229 225" fill="none" xmlns="http://www.w3.org/2000/svg">
<g filter="url(#filter0_f_41_27932)">
<path d="M114.583 210C169.523 210 214.061 195.414 214.061 177.421C214.061 159.428 169.523 144.842 114.583 144.842C59.6431 144.842 15.1053 159.428 15.1053 177.421C15.1053 195.414 59.6431 210 114.583 210Z" fill="#001447"/>
</g>
<path d="M225.659 81.3569C226.349 79.763 226.575 78.0448 226.394 76.3491C226.315 73.8057 226.236 71.2622 226.145 68.7074C226.145 68.7413 226.145 68.764 226.157 68.7979C225.829 65.4744 223.975 62.2753 221.126 60.5005C220.968 60.3988 220.81 60.3196 220.652 60.2179C199.445 46.404 174.406 31.5615 151.548 20.2798C146.88 17.985 141.714 19.5224 139.747 23.5919C124.384 55.4362 97.3894 82.6909 63.386 103.061C60.8539 104.576 59.7347 106.758 60.0626 108.962C60.0626 108.939 60.0513 108.928 60.0513 108.906C60.5939 112.806 61.1139 116.694 61.6339 120.594C61.8486 122.199 62.8321 123.827 64.6295 125.206C85.2825 141.1 105.506 157.458 125.277 174.267C125.684 174.606 126.114 174.923 126.577 175.205C130.748 177.76 137.124 177.873 141.499 175.104C179.334 151.218 209.257 119.159 225.659 81.3569Z" fill="url(#paint0_radial_41_27932)"/>
<path d="M225.659 81.3569C226.349 79.763 226.575 78.0448 226.394 76.3491C226.315 73.8057 226.236 71.2622 226.145 68.7074C226.145 68.7413 226.145 68.764 226.157 68.7979C225.829 65.4744 223.975 62.2753 221.126 60.5005C220.968 60.3988 220.81 60.3196 220.652 60.2179C199.286 46.291 174.406 31.5615 151.548 20.2798C146.88 17.985 141.714 19.5224 139.747 23.5919C124.384 55.4362 97.3894 82.6909 63.386 103.061C60.8539 104.576 59.7347 106.758 60.0626 108.962C60.0626 108.939 60.0513 108.928 60.0513 108.906C60.5939 112.806 61.1139 116.694 61.6339 120.594C61.8486 122.199 62.8321 123.827 64.6295 125.206C85.2825 141.1 105.506 157.458 125.277 174.267C125.684 174.606 126.114 174.923 126.577 175.205C130.748 177.76 137.124 177.873 141.499 175.104C179.334 151.218 209.257 119.159 225.659 81.3569Z" fill="url(#paint1_linear_41_27932)"/>
<path d="M166.255 114.558C166.233 114.546 166.199 114.524 166.176 114.512C150.022 105.006 133.868 95.4986 117.715 85.9917C115.465 84.703 112.334 85.3247 110.695 87.3708C109.078 89.3717 109.541 92.0056 111.735 93.3282C111.746 93.3395 111.757 93.3395 111.768 93.3508C111.791 93.3734 161.067 121.996 161.067 121.996C163.361 123.285 166.357 122.674 167.747 120.605C169.126 118.559 168.437 115.869 166.255 114.558Z" fill="url(#paint2_linear_41_27932)"/>
<path d="M182.567 98.076C182.545 98.0647 182.511 98.0421 182.488 98.0308C166.334 88.5239 150.18 79.0169 134.027 69.51C131.777 68.2213 128.646 68.8431 127.007 70.8891C125.39 72.89 125.854 75.5239 128.047 76.8465C128.058 76.8578 128.069 76.8578 128.081 76.8691C128.103 76.8917 177.379 105.514 177.379 105.514C179.673 106.803 182.669 106.192 184.059 104.124C185.439 102.078 184.749 99.3873 182.567 98.076Z" fill="url(#paint3_linear_41_27932)"/>
<path d="M194.177 79.4014C194.154 79.3901 194.12 79.3675 194.098 79.3562C177.944 69.8493 161.79 60.3423 145.636 50.8354C143.387 49.5467 140.255 50.1685 138.616 52.2145C137 54.2154 137.463 56.8493 139.656 58.1719C139.667 58.1832 139.679 58.1832 139.69 58.1945C139.713 58.2171 188.988 86.8396 188.988 86.8396C191.283 88.1283 194.279 87.5179 195.669 85.4492C197.037 83.4031 196.359 80.7127 194.177 79.4014Z" fill="url(#paint4_linear_41_27932)"/>
<path d="M111.78 117.723C109.53 116.31 109.067 113.755 110.785 111.833C112.526 109.889 115.793 109.392 118.099 110.737C126.961 115.937 135.824 121.137 144.675 126.337C146.993 127.671 147.592 130.372 145.998 132.328C144.415 134.284 141.205 134.77 138.854 133.425C138.865 133.425 111.814 117.734 111.78 117.723Z" fill="url(#paint5_linear_41_27932)"/>
<mask id="mask0_41_27932" style="mask-type:luminance" maskUnits="userSpaceOnUse" x="15" y="0" width="121" height="181">
<path d="M22.5209 166.987L94.665 179.851C100.984 180.982 107.009 176.765 108.128 170.446L135.146 17.2842C136.355 10.4112 131.268 4.03553 124.305 3.6851L50.8382 0.0111959C46.2487 -0.21489 42.2017 3.00684 41.4104 7.52856L15.1392 156.429C14.2688 161.38 17.5697 166.105 22.5209 166.987Z" fill="white"/>
</mask>
<g mask="url(#mask0_41_27932)">
<path d="M20.9044 166.693L98.7345 180.597C102.793 181.31 106.659 178.608 107.371 174.55L135.937 12.6493C136.717 8.21804 133.416 4.10327 128.917 3.89979L49.3234 -0.000193464C45.5817 -0.169758 42.3034 2.46414 41.6478 6.14935L14.8566 158.045C14.1444 162.104 16.8461 165.97 20.9044 166.693Z" fill="url(#paint6_linear_41_27932)"/>
</g>
<mask id="mask1_41_27932" style="mask-type:luminance" maskUnits="userSpaceOnUse" x="15" y="0" width="121" height="181">
<path d="M22.5209 166.987L94.665 179.851C100.984 180.982 107.009 176.765 108.128 170.446L135.146 17.2842C136.355 10.4112 131.268 4.03553 124.305 3.6851L50.8382 0.0111959C46.2487 -0.21489 42.2017 3.00684 41.4104 7.52856L15.1392 156.429C14.2688 161.38 17.5697 166.105 22.5209 166.987Z" fill="white"/>
</mask>
<g mask="url(#mask1_41_27932)">
<path d="M20.9044 166.693L97.9206 180.451C102.431 181.242 106.727 178.235 107.518 173.736L135.767 13.5764C136.638 8.64768 132.975 4.08074 127.967 3.85465L49.3234 -0.0114239C45.5817 -0.180989 42.3034 2.45292 41.6478 6.13812L14.8566 158.045C14.1444 162.104 16.8461 165.97 20.9044 166.693Z" fill="url(#paint7_linear_41_27932)"/>
</g>
<mask id="mask2_41_27932" style="mask-type:luminance" maskUnits="userSpaceOnUse" x="15" y="0" width="121" height="181">
<path d="M22.5209 166.987L94.665 179.851C100.984 180.982 107.009 176.765 108.128 170.446L135.146 17.2842C136.355 10.4112 131.268 4.03553 124.305 3.6851L50.8382 0.0111959C46.2487 -0.21489 42.2017 3.00684 41.4104 7.52856L15.1392 156.429C14.2688 161.38 17.5697 166.105 22.5209 166.987Z" fill="white"/>
</mask>
<g mask="url(#mask2_41_27932)">
<path d="M20.9044 166.693L97.9206 180.451C102.431 181.242 106.727 178.235 107.518 173.736L135.767 13.5764C136.638 8.64768 132.975 4.08074 127.967 3.85465L49.3234 -0.0114239C45.5817 -0.180989 42.3034 2.45292 41.6478 6.13812L14.8566 158.045C14.1444 162.104 16.8461 165.97 20.9044 166.693Z" fill="url(#paint8_linear_41_27932)"/>
</g>
<mask id="mask3_41_27932" style="mask-type:luminance" maskUnits="userSpaceOnUse" x="15" y="0" width="121" height="181">
<path d="M22.5209 166.987L94.665 179.851C100.984 180.982 107.009 176.765 108.128 170.446L135.146 17.2842C136.355 10.4112 131.268 4.03553 124.305 3.6851L50.8382 0.0111959C46.2487 -0.21489 42.2017 3.00684 41.4104 7.52856L15.1392 156.429C14.2688 161.38 17.5697 166.105 22.5209 166.987Z" fill="white"/>
</mask>
<g mask="url(#mask3_41_27932)">
<path d="M28.3879 158.667L91.5338 169.271C94.959 169.847 98.192 167.53 98.7572 164.104L122.564 19.9632C123.163 16.3006 120.484 12.9207 116.776 12.6833L55.2017 8.70415C51.8444 8.48937 48.86 10.8181 48.2496 14.1302L23.2445 151.365C22.6227 154.801 24.9288 158.091 28.3879 158.667Z" fill="url(#paint9_linear_41_27932)"/>
</g>
<path d="M80.6364 40.7859C78.3642 40.4241 75.9338 40.4467 73.4356 40.9215C60.6165 43.3971 51.3809 55.9449 54.9078 68.9223C61.1817 92.0396 96.8129 83.7648 97.2085 61.5406C97.4007 50.9371 90.3016 42.3458 80.6364 40.7859Z" fill="url(#paint10_radial_41_27932)"/>
<path d="M94.0998 69.0919C88.6398 79.5823 75.9564 84.7144 65.7599 80.5545C55.5747 76.3945 51.7313 64.5136 57.1912 54.0232C62.6512 43.5328 75.3347 38.4007 85.5311 42.5607C95.7276 46.7207 99.5598 58.6015 94.0998 69.0919Z" fill="url(#paint11_radial_41_27932)"/>
<path opacity="0.18" d="M61.7356 54.8822C61.3287 55.4927 60.8313 56.0013 60.2321 55.8205C59.78 55.6848 59.5652 55.1535 59.5313 54.69C59.4522 53.5483 60.0626 52.4744 60.7634 51.5814C62.2104 49.7048 64.1434 48.0318 66.3139 47.0596C66.653 46.9014 67.026 46.777 67.3991 46.8109C67.7721 46.8449 68.1565 47.0709 68.2582 47.4327C68.5747 48.5066 66.1669 49.8631 65.4773 50.417C64.3695 51.2988 63.3973 52.3274 62.5721 53.4692C62.3574 53.7631 62.0861 54.3622 61.7356 54.8822Z" fill="white"/>
<path d="M85.079 54.7129C84.4346 54.6111 83.779 54.7581 83.2138 55.165C79.3477 57.9685 75.3686 60.7833 71.2877 63.6093C69.9199 61.518 68.5634 59.4154 67.1956 57.3128C66.7547 56.6346 66.0764 56.2163 65.353 56.1033C64.7086 56.0015 64.019 56.1485 63.4312 56.5668C62.1764 57.4485 61.8147 59.2007 62.6399 60.4893C64.4712 63.3719 66.3138 66.2432 68.1564 69.1032C68.5521 69.7137 69.1738 70.1432 69.8973 70.2789C69.9312 70.2902 69.9538 70.2902 69.9877 70.2902C70.6773 70.3919 71.3894 70.2337 71.9886 69.8267C76.9286 66.4693 81.7216 63.1346 86.3564 59.8111C87.5659 58.9407 87.8259 57.1998 86.9555 55.9224C86.4807 55.2328 85.7911 54.8259 85.079 54.7129Z" fill="url(#paint12_linear_41_27932)"/>
<path d="M113.814 25.819C113.362 28.0685 111.169 29.5268 108.908 29.0746C106.659 28.6224 105.201 26.4294 105.653 24.1686C106.105 21.919 108.298 20.4607 110.559 20.9129C112.808 21.3651 114.267 23.5581 113.814 25.819Z" fill="#BED8D9"/>
<path d="M109.089 28.1816C111.387 28.1816 113.249 26.3191 113.249 24.0216C113.249 21.7241 111.387 19.8616 109.089 19.8616C106.792 19.8616 104.929 21.7241 104.929 24.0216C104.929 26.3191 106.792 28.1816 109.089 28.1816Z" fill="url(#paint13_linear_41_27932)"/>
<path d="M52.9069 159.888L68.4164 162.307C70.5642 162.646 72.5877 161.165 72.9268 159.017C73.266 156.87 71.7851 154.846 69.6373 154.507L54.1278 152.088C51.9799 151.749 49.9565 153.23 49.6173 155.378C49.2782 157.525 50.7478 159.549 52.9069 159.888Z" fill="#BED8D9"/>
<path d="M52.4774 158.905L67.9869 161.324C70.1347 161.663 72.1582 160.182 72.4973 158.034C72.8365 155.886 71.3556 153.863 69.2078 153.524L53.6983 151.105C51.5504 150.766 49.527 152.246 49.1879 154.394C48.86 156.553 50.3296 158.566 52.4774 158.905Z" fill="url(#paint14_linear_41_27932)"/>
<path d="M46.8591 123.104L83.9372 128.858C86.085 129.197 88.1085 127.716 88.4476 125.568C88.7868 123.42 87.3059 121.397 85.1581 121.058L48.08 115.304C45.9321 114.965 43.9087 116.445 43.5695 118.593C43.2304 120.752 44.7113 122.764 46.8591 123.104Z" fill="url(#paint15_linear_41_27932)"/>
<path d="M50.4426 105.051L87.5207 110.805C89.6685 111.144 91.692 109.663 92.0311 107.515C92.3702 105.367 90.8894 103.344 88.7416 103.005L51.6634 97.2508C49.5156 96.9116 47.4921 98.3925 47.153 100.54C46.8139 102.699 48.2947 104.712 50.4426 105.051Z" fill="url(#paint16_linear_41_27932)"/>
<defs>
<filter id="filter0_f_41_27932" x="0.205286" y="129.942" width="228.756" height="94.958" filterUnits="userSpaceOnUse" color-interpolation-filters="sRGB">
<feFlood flood-opacity="0" result="BackgroundImageFix"/>
<feBlend mode="normal" in="SourceGraphic" in2="BackgroundImageFix" result="shape"/>
<feGaussianBlur stdDeviation="7.45" result="effect1_foregroundBlur_41_27932"/>
</filter>
<radialGradient id="paint0_radial_41_27932" cx="0" cy="0" r="1" gradientUnits="userSpaceOnUse" gradientTransform="translate(42.3775 3.70273) rotate(31.7509) scale(218.227 218.227)">
<stop offset="0.4279" stop-color="#F3F8FB"/>
<stop offset="0.6492" stop-color="#DFEEF0"/>
<stop offset="0.7882" stop-color="#ECFCFF"/>
<stop offset="0.8144" stop-color="#E6F7FA"/>
<stop offset="0.8485" stop-color="#D6EBED"/>
<stop offset="0.8832" stop-color="#BED8D9"/>
<stop offset="0.9447" stop-color="#BED8D9"/>
</radialGradient>
<linearGradient id="paint1_linear_41_27932" x1="202.614" y1="27.3709" x2="88.2968" y2="165.348" gradientUnits="userSpaceOnUse">
<stop offset="0.0554282" stop-color="#F3F8FB"/>
<stop offset="0.1434" stop-color="#E3ECF1"/>
<stop offset="0.5671" stop-color="#E3ECF1"/>
<stop offset="0.8483" stop-color="#BED8D9"/>
<stop offset="0.9098" stop-color="#BED8D9"/>
</linearGradient>
<linearGradient id="paint2_linear_41_27932" x1="146.181" y1="91.9248" x2="133.639" y2="113.586" gradientUnits="userSpaceOnUse">
<stop offset="0.2344" stop-color="#A6BBBE"/>
<stop offset="0.2534" stop-color="#A9BEC1"/>
<stop offset="0.3811" stop-color="#B8D1D3"/>
<stop offset="0.4704" stop-color="#BED8D9"/>
<stop offset="0.5454" stop-color="#BAD3D5"/>
<stop offset="0.6295" stop-color="#AFC6C8"/>
<stop offset="0.6766" stop-color="#A6BBBE"/>
<stop offset="0.7373" stop-color="#9CAFB2"/>
<stop offset="0.8458" stop-color="#809093"/>
<stop offset="0.8983" stop-color="#717F82"/>
</linearGradient>
<linearGradient id="paint3_linear_41_27932" x1="162.495" y1="75.4398" x2="149.952" y2="97.101" gradientUnits="userSpaceOnUse">
<stop offset="0.2344" stop-color="#A6BBBE"/>
<stop offset="0.2534" stop-color="#A9BEC1"/>
<stop offset="0.3811" stop-color="#B8D1D3"/>
<stop offset="0.4704" stop-color="#BED8D9"/>
<stop offset="0.5454" stop-color="#BAD3D5"/>
<stop offset="0.6295" stop-color="#AFC6C8"/>
<stop offset="0.6766" stop-color="#A6BBBE"/>
<stop offset="0.7373" stop-color="#9CAFB2"/>
<stop offset="0.8458" stop-color="#809093"/>
<stop offset="0.8983" stop-color="#717F82"/>
</linearGradient>
<linearGradient id="paint4_linear_41_27932" x1="174.097" y1="56.7674" x2="161.554" y2="78.4286" gradientUnits="userSpaceOnUse">
<stop offset="0.2344" stop-color="#A6BBBE"/>
<stop offset="0.2534" stop-color="#A9BEC1"/>
<stop offset="0.3811" stop-color="#B8D1D3"/>
<stop offset="0.4704" stop-color="#BED8D9"/>
<stop offset="0.5454" stop-color="#BAD3D5"/>
<stop offset="0.6295" stop-color="#AFC6C8"/>
<stop offset="0.6766" stop-color="#A6BBBE"/>
<stop offset="0.7373" stop-color="#9CAFB2"/>
<stop offset="0.8458" stop-color="#809093"/>
<stop offset="0.8983" stop-color="#717F82"/>
</linearGradient>
<linearGradient id="paint5_linear_41_27932" x1="134.853" y1="111.599" x2="123.055" y2="130.687" gradientUnits="userSpaceOnUse">
<stop offset="0.2344" stop-color="#A6BBBE"/>
<stop offset="0.2534" stop-color="#A9BEC1"/>
<stop offset="0.3811" stop-color="#B8D1D3"/>
<stop offset="0.4704" stop-color="#BED8D9"/>
<stop offset="0.5454" stop-color="#BAD3D5"/>
<stop offset="0.6295" stop-color="#AFC6C8"/>
<stop offset="0.6766" stop-color="#A6BBBE"/>
<stop offset="0.7373" stop-color="#9CAFB2"/>
<stop offset="0.8458" stop-color="#809093"/>
<stop offset="0.8983" stop-color="#717F82"/>
</linearGradient>
<linearGradient id="paint6_linear_41_27932" x1="121.651" y1="93.5889" x2="29.1041" y2="77.2654" gradientUnits="userSpaceOnUse">
<stop stop-color="#9A6CF0"/>
<stop offset="0.00803427" stop-color="#9D70EA"/>
<stop offset="0.0315698" stop-color="#A577DC"/>
<stop offset="0.0521553" stop-color="#A77AD7"/>
<stop offset="0.0819316" stop-color="#966BCA"/>
<stop offset="0.1288" stop-color="#825ABB"/>
<stop offset="0.1824" stop-color="#744EB0"/>
<stop offset="0.2477" stop-color="#6B47AA"/>
<stop offset="0.3586" stop-color="#6945A8"/>
<stop offset="0.5582" stop-color="#6B46AA"/>
<stop offset="0.6751" stop-color="#704BB3"/>
<stop offset="0.7706" stop-color="#7A52C1"/>
<stop offset="0.854" stop-color="#875DD5"/>
<stop offset="0.9297" stop-color="#996BEE"/>
<stop offset="0.9339" stop-color="#9A6CF0"/>
<stop offset="0.9506" stop-color="#A06FF2"/>
<stop offset="0.9724" stop-color="#B079F6"/>
<stop offset="0.9971" stop-color="#CB88FE"/>
<stop offset="1" stop-color="#CF8AFF"/>
</linearGradient>
<linearGradient id="paint7_linear_41_27932" x1="79.0145" y1="1.29131" x2="70.9532" y2="185.402" gradientUnits="userSpaceOnUse">
<stop stop-color="#E8C7FC"/>
<stop offset="0.00261481" stop-color="#D8B4F3"/>
<stop offset="0.00660721" stop-color="#C59EE8"/>
<stop offset="0.0113222" stop-color="#B78DE0"/>
<stop offset="0.0171532" stop-color="#AC82DA"/>
<stop offset="0.0253375" stop-color="#A77BD7"/>
<stop offset="0.0480571" stop-color="#A579D6"/>
<stop offset="0.1443" stop-color="#8158CB"/>
<stop offset="0.6142" stop-color="#8259CD"/>
<stop offset="0.7834" stop-color="#875DD4"/>
<stop offset="0.9037" stop-color="#8F63DF"/>
<stop offset="1" stop-color="#9A6CF0"/>
</linearGradient>
<linearGradient id="paint8_linear_41_27932" x1="60.0388" y1="173.876" x2="90.1901" y2="0.000477226" gradientUnits="userSpaceOnUse">
<stop stop-color="#432594"/>
<stop offset="0.0322202" stop-color="#7257B7"/>
<stop offset="0.0776219" stop-color="#B099E6"/>
<stop offset="0.0990123" stop-color="#C9B3F8"/>
</linearGradient>
<linearGradient id="paint9_linear_41_27932" x1="59.3179" y1="167.487" x2="86.4078" y2="10.6002" gradientUnits="userSpaceOnUse">
<stop offset="0.0139319" stop-color="#BED8D9"/>
<stop offset="0.0611844" stop-color="#DAE9EC"/>
<stop offset="0.9713" stop-color="#F3F8FB"/>
<stop offset="1" stop-color="white"/>
</linearGradient>
<radialGradient id="paint10_radial_41_27932" cx="0" cy="0" r="1" gradientUnits="userSpaceOnUse" gradientTransform="translate(72.6192 59.3942) rotate(5.91184) scale(25.9264 25.9264)">
<stop offset="0.00581592" stop-color="#75D982"/>
<stop offset="0.1298" stop-color="#71D17A"/>
<stop offset="0.4658" stop-color="#67BF67"/>
<stop offset="0.7358" stop-color="#51AA59"/>
<stop offset="0.8379" stop-color="#48A153"/>
<stop offset="0.9301" stop-color="#4AA354"/>
<stop offset="0.9634" stop-color="#51A959"/>
<stop offset="0.987" stop-color="#5CB560"/>
<stop offset="1" stop-color="#67BF67"/>
</radialGradient>
<radialGradient id="paint11_radial_41_27932" cx="0" cy="0" r="1" gradientUnits="userSpaceOnUse" gradientTransform="translate(75.6485 61.5565) rotate(22.2141) scale(19.9286 21.3277)">
<stop offset="0.2031" stop-color="#67BF67"/>
<stop offset="1" stop-color="#67BF67"/>
</radialGradient>
<linearGradient id="paint12_linear_41_27932" x1="70.623" y1="53.1036" x2="79.2565" y2="64.83" gradientUnits="userSpaceOnUse">
<stop stop-color="#FFFDA6"/>
<stop offset="0.4746" stop-color="#F5E37B"/>
<stop offset="0.6657" stop-color="#F5E278"/>
<stop offset="0.7865" stop-color="#F5DF70"/>
<stop offset="0.8877" stop-color="#F5DA61"/>
<stop offset="0.9777" stop-color="#F6D44C"/>
<stop offset="1" stop-color="#F6D246"/>
</linearGradient>
<linearGradient id="paint13_linear_41_27932" x1="105.389" y1="20.878" x2="113.042" y2="27.3743" gradientUnits="userSpaceOnUse">
<stop stop-color="#CF8AFF"/>
<stop offset="0.084942" stop-color="#BE81FA"/>
<stop offset="0.222" stop-color="#AA75F5"/>
<stop offset="0.3585" stop-color="#9E6EF1"/>
<stop offset="0.4931" stop-color="#9A6CF0"/>
<stop offset="0.5988" stop-color="#9565EF"/>
<stop offset="0.7499" stop-color="#8552EC"/>
<stop offset="0.9275" stop-color="#6D34E7"/>
<stop offset="1" stop-color="#6125E5"/>
</linearGradient>
<linearGradient id="paint14_linear_41_27932" x1="62.0326" y1="150.451" x2="59.4125" y2="163.15" gradientUnits="userSpaceOnUse">
<stop offset="0.0804652" stop-color="#CF8AFF"/>
<stop offset="0.1515" stop-color="#BE81FA"/>
<stop offset="0.2662" stop-color="#AA75F5"/>
<stop offset="0.3805" stop-color="#9E6EF1"/>
<stop offset="0.4931" stop-color="#9A6CF0"/>
<stop offset="0.5761" stop-color="#9565EF"/>
<stop offset="0.6947" stop-color="#8552EC"/>
<stop offset="0.8342" stop-color="#6D34E7"/>
<stop offset="0.8911" stop-color="#6125E5"/>
</linearGradient>
<linearGradient id="paint15_linear_41_27932" x1="67.9959" y1="109.648" x2="64.4116" y2="132.053" gradientUnits="userSpaceOnUse">
<stop offset="0.2344" stop-color="#A6BBBE"/>
<stop offset="0.2534" stop-color="#A9BEC1"/>
<stop offset="0.3811" stop-color="#B8D1D3"/>
<stop offset="0.4704" stop-color="#BED8D9"/>
<stop offset="0.5454" stop-color="#BAD3D5"/>
<stop offset="0.6295" stop-color="#AFC6C8"/>
<stop offset="0.6766" stop-color="#A6BBBE"/>
<stop offset="0.7373" stop-color="#9CAFB2"/>
<stop offset="0.8458" stop-color="#809093"/>
<stop offset="0.8983" stop-color="#717F82"/>
</linearGradient>
<linearGradient id="paint16_linear_41_27932" x1="71.5769" y1="91.5942" x2="67.9926" y2="113.999" gradientUnits="userSpaceOnUse">
<stop offset="0.2344" stop-color="#A6BBBE"/>
<stop offset="0.2534" stop-color="#A9BEC1"/>
<stop offset="0.3811" stop-color="#B8D1D3"/>
<stop offset="0.4704" stop-color="#BED8D9"/>
<stop offset="0.5454" stop-color="#BAD3D5"/>
<stop offset="0.6295" stop-color="#AFC6C8"/>
<stop offset="0.6766" stop-color="#A6BBBE"/>
<stop offset="0.7373" stop-color="#9CAFB2"/>
<stop offset="0.8458" stop-color="#809093"/>
<stop offset="0.8983" stop-color="#717F82"/>
</linearGradient>
</defs>
</svg>
