<svg width="14" height="14" viewBox="0 0 14 14" fill="none" xmlns="http://www.w3.org/2000/svg">
<path d="M5.25 5.25H6.125V10.5H5.25V5.25Z" fill="#5D5D5D"/>
<path d="M7.875 5.25H8.75V10.5H7.875V5.25Z" fill="#5D5D5D"/>
<path d="M1.75 2.625V3.5H2.625V12.25C2.625 12.4821 2.71719 12.7046 2.88128 12.8687C3.04538 13.0328 3.26794 13.125 3.5 13.125H10.5C10.7321 13.125 10.9546 13.0328 11.1187 12.8687C11.2828 12.7046 11.375 12.4821 11.375 12.25V3.5H12.25V2.625H1.75ZM3.5 12.25V3.5H10.5V12.25H3.5Z" fill="#5D5D5D"/>
<path d="M5.25 0.875H8.75V1.75H5.25V0.875Z" fill="#5D5D5D"/>
</svg>
