<svg width="21" height="18" viewBox="0 0 21 18" fill="none" xmlns="http://www.w3.org/2000/svg">
<g clip-path="url(#clip0_1531_13285)">
<path d="M2.22423 15.409L3.08421 16.9418C3.26291 17.2645 3.51976 17.5181 3.82133 17.7025C4.68512 16.5711 5.28626 15.7029 5.62508 15.0979C5.96884 14.4839 6.39137 13.5234 6.89265 12.2167C5.54167 12.0331 4.51792 11.9414 3.8214 11.9414C3.15284 11.9414 2.12909 12.0331 0.75 12.2167C0.75 12.5739 0.83935 12.9312 1.01805 13.2539L2.22423 15.409Z" fill="#0066DA"/>
<path d="M17.1788 17.7025C17.4805 17.5181 17.7373 17.2645 17.916 16.9419L18.2734 16.308L19.9822 13.2539C20.1576 12.9382 20.25 12.5806 20.2502 12.2167C18.8631 12.0331 17.8412 11.9414 17.1845 11.9414C16.4787 11.9414 15.4567 12.0331 14.1187 12.2167C14.6141 13.5306 15.031 14.491 15.3696 15.0979C15.7111 15.7101 16.3141 16.5783 17.1788 17.7025Z" fill="#EA4335"/>
<path d="M10.5001 5.76244C11.4995 4.51698 12.1882 3.55653 12.5663 2.88126C12.8707 2.33748 13.2058 1.46924 13.5714 0.276603C13.2699 0.0922009 12.9237 0 12.5663 0H8.43394C8.07654 0 7.73041 0.103755 7.42877 0.276603C7.89388 1.64445 8.2886 2.61794 8.61279 3.197C8.9711 3.83699 9.6002 4.6921 10.5001 5.76244Z" fill="#00832D"/>
<path d="M14.1075 12.2168H6.89266L3.82141 17.7026C4.1229 17.887 4.4691 17.9792 4.8265 17.9792H16.1737C16.5311 17.9792 16.8773 17.8755 17.1788 17.7026L14.1075 12.2168Z" fill="#2684FC"/>
<path d="M10.5001 5.76212L7.42883 0.276367C7.12719 0.460769 6.87033 0.714262 6.69163 1.037L1.01805 11.1789C0.842635 11.4946 0.750232 11.8522 0.75 12.2161H6.89265L10.5001 5.76212Z" fill="#00AC47"/>
<path d="M17.1454 6.10798L14.3085 1.037C14.1299 0.714262 13.8729 0.460769 13.5714 0.276367L10.5001 5.7622L14.1075 12.2162H20.239C20.239 11.8589 20.1497 11.5017 19.971 11.1789L17.1454 6.10798Z" fill="#FFBA00"/>
</g>
<defs>
<clipPath id="clip0_1531_13285">
<rect width="19.5" height="18" fill="white" transform="translate(0.75)"/>
</clipPath>
</defs>
</svg>
