<svg xmlns="http://www.w3.org/2000/svg" xmlns:xlink="http://www.w3.org/1999/xlink">
   
    <symbol id="eye" width="24" height="24" viewBox="0 0 24 24" fill="none" xmlns="http://www.w3.org/2000/svg">
<path d="M2 12C2 12 5 5 12 5C19 5 22 12 22 12C22 12 19 19 12 19C5 19 2 12 2 12Z" stroke="#ABAEB8" stroke-width="2" stroke-linecap="round" stroke-linejoin="round"/>
<path d="M12 15C13.6569 15 15 13.6569 15 12C15 10.3431 13.6569 9 12 9C10.3431 9 9 10.3431 9 12C9 13.6569 10.3431 15 12 15Z" stroke="#ABAEB8" stroke-width="2" stroke-linecap="round" stroke-linejoin="round"/>
</symbol>

<symbol id="hideeye" width="24" height="24" viewBox="0 0 24 24" fill="none" xmlns="http://www.w3.org/2000/svg">
<path d="M2 12C2 12 5 5 12 5C19 5 22 12 22 12C22 12 19 19 12 19C5 19 2 12 2 12Z" stroke="#ABAEB8" stroke-width="2" stroke-linecap="round" stroke-linejoin="round"/>
<path d="M12 15C13.6569 15 15 13.6569 15 12C15 10.3431 13.6569 9 12 9C10.3431 9 9 10.3431 9 12C9 13.6569 10.3431 15 12 15Z" stroke="#ABAEB8" stroke-width="2" stroke-linecap="round" stroke-linejoin="round"/>
<line x1="4.08699" y1="3.79387" x2="21.1298" y2="20.8367" stroke="white" stroke-width="2"/>
<line x1="2.94441" y1="4.44475" x2="19.9873" y2="21.4876" stroke="#ABAEB8" stroke-width="2"/>
</symbol>

<symbol id="triangle" width="9" height="12" viewBox="0 0 9 12" fill="none" xmlns="http://www.w3.org/2000/svg">
<path d="M1.12248 5.18932L7.41451 0.645077C8.07584 0.167451 9 0.639986 9 1.45576V10.5442C9 11.36 8.07584 11.8325 7.41451 11.3549L1.12248 6.81068C0.5698 6.41152 0.569799 5.58848 1.12248 5.18932Z" fill="#EAEEFF"/>
</symbol>

<symbol id="check" width="15" height="12" viewBox="0 0 15 12" fill="none" xmlns="http://www.w3.org/2000/svg">
<path d="M1.3772 5.21429L5.66291 9.5L13.6629 1.5" stroke="#00FF75" stroke-width="3"/>
</symbol>
<symbol id="disc-fill"  width="11" height="11" viewBox="0 0 11 11" fill="none" xmlns="http://www.w3.org/2000/svg">
<rect x="0.377197" y="0.5" width="10" height="10" rx="5" fill="white"/>
</symbol>
<symbol id="disc" width="11" height="11" viewBox="0 0 11 11" fill="none" xmlns="http://www.w3.org/2000/svg">
<circle opacity="0.2" cx="5.3772" cy="5.5" r="5" fill="white"/>
</symbol>




<symbol id="backarrow" width="19" height="13" viewBox="0 0 19 13" fill="none" xmlns="http://www.w3.org/2000/svg">
<path d="M0.203681 7.07901L4.49285 12.1735C4.85118 12.567 5.41583 12.5989 5.78503 12.3011C6.16508 12.0033 6.21937 11.3971 5.91533 11.0355L2.86405 7.40871H18.077C18.5874 7.40871 19 7.00456 19 6.50468C19 6.00481 18.5874 5.60065 18.077 5.60065H2.86405L5.91533 1.97389C6.21937 1.60165 6.15422 1.00605 5.78503 0.697615C5.41583 0.378545 4.79689 0.46363 4.49285 0.825242L0.203681 5.93036C-0.0786438 6.31324 -0.0569265 6.70676 0.203681 7.07901Z" fill="#211F31"/>
</symbol>

    
</svg>