<svg width="240" height="225" viewBox="0 0 240 225" fill="none" xmlns="http://www.w3.org/2000/svg">
<g filter="url(#filter0_f_41_27882)">
<path d="M120.013 210C178.01 210 225.026 196.851 225.026 180.63C225.026 164.409 178.01 151.259 120.013 151.259C62.0159 151.259 15 164.409 15 180.63C15 196.851 62.0159 210 120.013 210Z" fill="#001447"/>
</g>
<path d="M186.88 38.2586C190.203 26.4618 195.563 13.3106 205.461 5.35737C207.464 3.74819 210.219 1.71068 211.933 0.0436249C207.256 0.170969 201.78 0.66877 197.103 0.95819C185.827 1.6528 138.675 4.55857 126.38 5.32264C118.404 5.82044 110.416 6.30666 102.439 6.80446C93.1201 7.3833 85.6415 17.6519 81.5202 25.0726C76.8663 33.4426 74.1921 42.7851 72.4092 52.1507C69.9897 64.8389 67.2807 126.462 66.644 132.169C65.5211 142.264 61.5502 158.426 48.7231 158.541C53.8748 158.541 150.691 159.236 158.228 159.224C167.026 159.213 172.201 152.255 175.142 144.753C178.742 135.561 179.68 95.8067 180.166 85.5034C180.664 75.1538 185.387 43.5723 186.88 38.2586Z" fill="url(#paint0_radial_41_27882)"/>
<path d="M186.88 38.2586C190.203 26.4618 195.563 13.3106 205.461 5.35737C207.464 3.74819 210.219 1.71068 211.933 0.0436249C207.256 0.170969 201.78 0.66877 197.103 0.95819C185.827 1.6528 138.675 4.55857 126.38 5.32264C118.404 5.82044 110.416 6.30666 102.439 6.80446C93.1201 7.3833 85.6415 17.6519 81.5202 25.0726C76.8663 33.4426 74.1921 42.7851 72.4092 52.1507C69.9897 64.8389 67.2807 126.462 66.644 132.169C65.5211 142.264 61.5502 158.426 48.7231 158.541C53.8748 158.541 150.691 159.236 158.228 159.224C167.026 159.213 172.201 152.255 175.142 144.753C178.742 135.561 179.68 95.8067 180.166 85.5034C180.664 75.1538 185.387 43.5723 186.88 38.2586Z" fill="url(#paint1_linear_41_27882)"/>
<path d="M155.635 166.286C150.622 165.14 147.253 162.118 144.521 157.87C142.495 154.721 140.747 151.329 140.099 147.613C139.45 143.85 140.319 141.083 143.931 139.046C140.272 139.046 35.8961 139.972 34.3332 139.984C31.0917 140.007 29.4478 143.26 29.3899 146.073C29.3205 148.898 30.235 151.757 31.3232 154.339C32.8745 158.02 35.3056 161.482 38.524 163.89C41.3719 166.008 45.0996 167.282 48.7 167.293C48.7 167.293 158.98 167.559 158.992 167.559C157.626 167.201 156.827 166.564 155.635 166.286Z" fill="url(#paint2_linear_41_27882)"/>
<path d="M216.494 2.94931C215.591 0.807607 213.194 -0.685799 210.914 0.321381C206.85 2.12736 203.215 5.07944 200.008 8.89977C192.727 17.5592 188.455 28.9276 185.572 39.7287C183.002 49.3259 181.509 59.3282 180.606 69.2032C179.957 76.4271 179.599 83.6858 179.332 90.9444C178.973 101.144 178.8 111.354 178.267 121.553C177.862 129.345 177.144 137.888 174.158 145.182C170.661 153.714 157.151 165.649 150.356 152.649C148.596 149.28 148.77 145.483 147.496 141.998C147.114 140.933 146.431 139.775 145.366 139.289C142.437 137.958 139.705 141.327 139.3 143.85C138.374 149.662 141.847 157.059 145.632 161.378C148.202 164.306 152 166.587 155.831 167.293C159.119 167.907 162.94 167.444 166.065 166.24C173.417 163.403 178.626 156.758 181.682 149.72C184.148 144.036 185.422 137.703 186.128 131.567C187.656 118.277 187.471 104.802 187.945 91.4422C188.2 84.3688 188.547 77.2838 189.173 70.2335C189.995 61.0647 191.303 51.8728 193.433 42.9239C195.621 33.7435 198.932 23.6833 205.044 16.3321C207.753 13.079 210.902 10.5321 214.584 8.89977C216.98 7.83471 217.397 5.10259 216.494 2.94931Z" fill="url(#paint3_linear_41_27882)"/>
<path d="M125.385 35.1791C122.467 35.1791 120.071 32.8406 120.013 29.9117C119.955 26.948 122.305 24.4937 125.269 24.4359L159.49 23.8917C162.453 23.8339 164.908 26.1839 164.966 29.1476C165.023 32.1113 162.673 34.5655 159.71 34.6234L125.489 35.1675C125.454 35.1791 125.419 35.1791 125.385 35.1791Z" fill="url(#paint4_linear_41_27882)"/>
<path d="M106.005 36.8229C110.027 36.8229 113.287 33.5628 113.287 29.5411C113.287 25.5195 110.027 22.2594 106.005 22.2594C101.983 22.2594 98.7233 25.5195 98.7233 29.5411C98.7233 33.5628 101.983 36.8229 106.005 36.8229Z" fill="url(#paint5_radial_41_27882)"/>
<path d="M98.0981 61.9099C102.12 61.9099 105.38 58.6497 105.38 54.6281C105.38 50.6065 102.12 47.3463 98.0981 47.3463C94.0765 47.3463 90.8163 50.6065 90.8163 54.6281C90.8163 58.6497 94.0765 61.9099 98.0981 61.9099Z" fill="url(#paint6_radial_41_27882)"/>
<path d="M95.0881 86.9967C99.1098 86.9967 102.37 83.7365 102.37 79.7149C102.37 75.6933 99.1098 72.4331 95.0881 72.4331C91.0665 72.4331 87.8063 75.6933 87.8063 79.7149C87.8063 83.7365 91.0665 86.9967 95.0881 86.9967Z" fill="url(#paint7_radial_41_27882)"/>
<path d="M94.3356 112.095C98.3573 112.095 101.617 108.835 101.617 104.813C101.617 100.792 98.3573 97.5317 94.3356 97.5317C90.314 97.5317 87.0538 100.792 87.0538 104.813C87.0538 108.835 90.314 112.095 94.3356 112.095Z" fill="url(#paint8_radial_41_27882)"/>
<path d="M117.478 60.2776C114.56 60.2776 112.164 57.9391 112.106 55.0101C112.048 52.0465 114.398 49.5922 117.362 49.5343L151.583 48.9902C154.546 48.9207 157.001 51.2824 157.059 54.2461C157.117 57.2097 154.766 59.664 151.803 59.7219L117.582 60.266C117.559 60.266 117.512 60.2776 117.478 60.2776Z" fill="url(#paint9_linear_41_27882)"/>
<path d="M114.468 85.3645C111.55 85.3645 109.154 83.0259 109.096 80.097C109.038 77.1334 111.388 74.6791 114.352 74.6212L148.573 74.0771C151.537 74.0192 153.991 76.3693 154.049 79.333C154.107 82.2966 151.756 84.7509 148.793 84.8088L114.572 85.3529C114.549 85.3645 114.502 85.3645 114.468 85.3645Z" fill="url(#paint10_linear_41_27882)"/>
<path d="M113.715 110.451C110.798 110.451 108.401 108.113 108.344 105.184C108.286 102.22 110.636 99.766 113.599 99.7081L140.295 99.164C143.259 99.0945 145.713 101.456 145.771 104.42C145.829 107.383 143.479 109.838 140.515 109.896L113.819 110.44C113.796 110.451 113.75 110.451 113.715 110.451Z" fill="url(#paint11_linear_41_27882)"/>
<path d="M179.992 143.561C203.559 143.561 222.664 124.456 222.664 100.889C222.664 77.3217 203.559 58.2168 179.992 58.2168C156.425 58.2168 137.32 77.3217 137.32 100.889C137.32 124.456 156.425 143.561 179.992 143.561Z" fill="url(#paint12_radial_41_27882)"/>
<path d="M179.992 143.561C203.559 143.561 222.664 124.456 222.664 100.889C222.664 77.3217 203.559 58.2168 179.992 58.2168C156.425 58.2168 137.32 77.3217 137.32 100.889C137.32 124.456 156.425 143.561 179.992 143.561Z" fill="url(#paint13_radial_41_27882)"/>
<path opacity="0.18" d="M149.036 91.2338C148.399 92.704 147.531 93.989 146.176 93.827C145.146 93.7112 144.486 92.6577 144.243 91.6621C143.641 89.2426 144.533 86.7073 145.679 84.4961C148.063 79.9117 151.571 75.5472 155.855 72.6183C156.538 72.1552 157.279 71.7385 158.101 71.669C158.922 71.5996 159.825 71.9469 160.196 72.6762C161.296 74.8758 156.642 78.6961 155.368 80.1548C153.342 82.4702 151.629 85.0749 150.298 87.8534C149.95 88.5943 149.58 89.9835 149.036 91.2338Z" fill="white"/>
<path d="M175.639 118.497C174.204 118.474 172.826 117.872 171.831 116.83L157.846 102.324C155.762 100.16 155.831 96.7212 157.985 94.6374C160.15 92.5536 163.588 92.623 165.672 94.7763L175.894 105.381L196.836 85.1908C199.001 83.1069 202.44 83.1764 204.523 85.3297C206.607 87.4945 206.538 90.9328 204.385 93.0167L179.529 116.969C178.464 117.976 177.075 118.52 175.639 118.497Z" fill="url(#paint14_linear_41_27882)"/>
<defs>
<filter id="filter0_f_41_27882" x="0.1" y="136.359" width="239.826" height="88.5406" filterUnits="userSpaceOnUse" color-interpolation-filters="sRGB">
<feFlood flood-opacity="0" result="BackgroundImageFix"/>
<feBlend mode="normal" in="SourceGraphic" in2="BackgroundImageFix" result="shape"/>
<feGaussianBlur stdDeviation="7.45" result="effect1_foregroundBlur_41_27882"/>
</filter>
<radialGradient id="paint0_radial_41_27882" cx="0" cy="0" r="1" gradientUnits="userSpaceOnUse" gradientTransform="translate(-207.26 73.5944) scale(440.175 440.175)">
<stop offset="0.6262" stop-color="#BED8D9"/>
<stop offset="0.6284" stop-color="#C1DADB"/>
<stop offset="0.6485" stop-color="#D7E7E9"/>
<stop offset="0.6705" stop-color="#E7F1F3"/>
<stop offset="0.6955" stop-color="#F0F6F9"/>
<stop offset="0.7302" stop-color="#F3F8FB"/>
<stop offset="0.8171" stop-color="#F3F8FB"/>
<stop offset="0.8246" stop-color="#F3F8FB"/>
<stop offset="0.8491" stop-color="#EAF3F5"/>
<stop offset="0.8889" stop-color="#D2E4E6"/>
<stop offset="0.9152" stop-color="#BED8D9"/>
<stop offset="0.9464" stop-color="#B9D2D3"/>
<stop offset="0.9878" stop-color="#ABC1C4"/>
<stop offset="1" stop-color="#A6BBBE"/>
</radialGradient>
<linearGradient id="paint1_linear_41_27882" x1="130.338" y1="0.0355096" x2="130.338" y2="159.2" gradientUnits="userSpaceOnUse">
<stop stop-color="#BED8D9"/>
<stop offset="0.2142" stop-color="#F3F8FB"/>
<stop offset="0.8243" stop-color="#BED8D9"/>
<stop offset="0.9143" stop-color="#B2CACC"/>
<stop offset="0.9878" stop-color="#A6BBBE"/>
</linearGradient>
<linearGradient id="paint2_linear_41_27882" x1="94.1873" y1="132.963" x2="94.1873" y2="175.631" gradientUnits="userSpaceOnUse">
<stop stop-color="#BED8D9"/>
<stop offset="0.026935" stop-color="#C2DBDC"/>
<stop offset="0.174" stop-color="#D6E7E9"/>
<stop offset="0.2746" stop-color="#DDEBEE"/>
<stop offset="0.3967" stop-color="#D4E6E8"/>
<stop offset="0.5844" stop-color="#BED8D9"/>
<stop offset="0.695" stop-color="#AECCD1"/>
<stop offset="0.9099" stop-color="#85ACBB"/>
<stop offset="0.9983" stop-color="#729EB1"/>
</linearGradient>
<linearGradient id="paint3_linear_41_27882" x1="243.733" y1="7.17227" x2="125.731" y2="169.659" gradientUnits="userSpaceOnUse">
<stop stop-color="#E3ECF1"/>
<stop offset="0.0364725" stop-color="#D5E4E8"/>
<stop offset="0.0911852" stop-color="#C8DDDF"/>
<stop offset="0.1616" stop-color="#C0D9DA"/>
<stop offset="0.3014" stop-color="#BED8D9"/>
<stop offset="0.3956" stop-color="#ABC9CF"/>
<stop offset="0.5863" stop-color="#79A3B5"/>
<stop offset="0.6111" stop-color="#729EB1"/>
<stop offset="0.6764" stop-color="#93B7C2"/>
<stop offset="0.7683" stop-color="#BED8D9"/>
<stop offset="0.8702" stop-color="#C0D9DB"/>
<stop offset="0.9269" stop-color="#C8DEE0"/>
<stop offset="0.9722" stop-color="#D6E5E9"/>
<stop offset="1" stop-color="#E3ECF1"/>
</linearGradient>
<linearGradient id="paint4_linear_41_27882" x1="142.495" y1="20.6715" x2="142.495" y2="41.1483" gradientUnits="userSpaceOnUse">
<stop offset="0.1413" stop-color="#A6BBBE"/>
<stop offset="0.1587" stop-color="#A9BEC1"/>
<stop offset="0.2752" stop-color="#B8D1D3"/>
<stop offset="0.3567" stop-color="#BED8D9"/>
<stop offset="0.4731" stop-color="#BAD3D5"/>
<stop offset="0.6036" stop-color="#AFC6C8"/>
<stop offset="0.6766" stop-color="#A6BBBE"/>
<stop offset="0.7373" stop-color="#9CAFB2"/>
<stop offset="0.8458" stop-color="#809093"/>
<stop offset="0.8983" stop-color="#717F82"/>
</linearGradient>
<radialGradient id="paint5_radial_41_27882" cx="0" cy="0" r="1" gradientUnits="userSpaceOnUse" gradientTransform="translate(104.869 28.2843) scale(9.08599)">
<stop stop-color="#67BF67"/>
<stop offset="1" stop-color="#48A153"/>
</radialGradient>
<radialGradient id="paint6_radial_41_27882" cx="0" cy="0" r="1" gradientUnits="userSpaceOnUse" gradientTransform="translate(96.5472 53.2452) scale(9.80162)">
<stop stop-color="#67BF67"/>
<stop offset="1" stop-color="#48A153"/>
</radialGradient>
<radialGradient id="paint7_radial_41_27882" cx="0" cy="0" r="1" gradientUnits="userSpaceOnUse" gradientTransform="translate(93.5371 78.3371) scale(9.80161)">
<stop stop-color="#67BF67"/>
<stop offset="1" stop-color="#48A153"/>
</radialGradient>
<radialGradient id="paint8_radial_41_27882" cx="0" cy="0" r="1" gradientUnits="userSpaceOnUse" gradientTransform="translate(92.7845 103.429) scale(9.80161 9.80161)">
<stop stop-color="#67BF67"/>
<stop offset="1" stop-color="#48A153"/>
</radialGradient>
<linearGradient id="paint9_linear_41_27882" x1="134.592" y1="43.5102" x2="134.592" y2="66.1937" gradientUnits="userSpaceOnUse">
<stop offset="0.1413" stop-color="#A6BBBE"/>
<stop offset="0.1587" stop-color="#A9BEC1"/>
<stop offset="0.2752" stop-color="#B8D1D3"/>
<stop offset="0.3567" stop-color="#BED8D9"/>
<stop offset="0.4731" stop-color="#BAD3D5"/>
<stop offset="0.6036" stop-color="#AFC6C8"/>
<stop offset="0.6766" stop-color="#A6BBBE"/>
<stop offset="0.7373" stop-color="#9CAFB2"/>
<stop offset="0.8458" stop-color="#809093"/>
<stop offset="0.8983" stop-color="#717F82"/>
</linearGradient>
<linearGradient id="paint10_linear_41_27882" x1="131.583" y1="70.1292" x2="131.583" y2="89.9908" gradientUnits="userSpaceOnUse">
<stop offset="0.1413" stop-color="#A6BBBE"/>
<stop offset="0.1587" stop-color="#A9BEC1"/>
<stop offset="0.2752" stop-color="#B8D1D3"/>
<stop offset="0.3567" stop-color="#BED8D9"/>
<stop offset="0.4731" stop-color="#BAD3D5"/>
<stop offset="0.6036" stop-color="#AFC6C8"/>
<stop offset="0.6766" stop-color="#A6BBBE"/>
<stop offset="0.7373" stop-color="#9CAFB2"/>
<stop offset="0.8458" stop-color="#809093"/>
<stop offset="0.8983" stop-color="#717F82"/>
</linearGradient>
<linearGradient id="paint11_linear_41_27882" x1="127.067" y1="93.913" x2="127.067" y2="116.676" gradientUnits="userSpaceOnUse">
<stop offset="0.1413" stop-color="#A6BBBE"/>
<stop offset="0.1587" stop-color="#A9BEC1"/>
<stop offset="0.2752" stop-color="#B8D1D3"/>
<stop offset="0.3567" stop-color="#BED8D9"/>
<stop offset="0.4731" stop-color="#BAD3D5"/>
<stop offset="0.6036" stop-color="#AFC6C8"/>
<stop offset="0.6766" stop-color="#A6BBBE"/>
<stop offset="0.7373" stop-color="#9CAFB2"/>
<stop offset="0.8458" stop-color="#809093"/>
<stop offset="0.8983" stop-color="#717F82"/>
</linearGradient>
<radialGradient id="paint12_radial_41_27882" cx="0" cy="0" r="1" gradientUnits="userSpaceOnUse" gradientTransform="translate(174.322 98.5826) rotate(7.19821) scale(55.3517 55.3517)">
<stop offset="0.00581592" stop-color="#75D982"/>
<stop offset="0.1298" stop-color="#71D17A"/>
<stop offset="0.4658" stop-color="#67BF67"/>
<stop offset="0.7358" stop-color="#51AA59"/>
<stop offset="0.8379" stop-color="#48A153"/>
<stop offset="0.9301" stop-color="#4AA354"/>
<stop offset="0.9634" stop-color="#51A959"/>
<stop offset="0.987" stop-color="#5CB560"/>
<stop offset="1" stop-color="#67BF67"/>
</radialGradient>
<radialGradient id="paint13_radial_41_27882" cx="0" cy="0" r="1" gradientUnits="userSpaceOnUse" gradientTransform="translate(174.322 98.5826) rotate(7.19821) scale(55.3517 55.3517)">
<stop offset="0.00581592" stop-color="#67BF67"/>
<stop offset="1" stop-color="#67BF67"/>
</radialGradient>
<linearGradient id="paint14_linear_41_27882" x1="171.742" y1="82.7122" x2="191.336" y2="105.817" gradientUnits="userSpaceOnUse">
<stop stop-color="#FFFDA6"/>
<stop offset="0.4746" stop-color="#F5E37B"/>
<stop offset="0.6657" stop-color="#F5E278"/>
<stop offset="0.7865" stop-color="#F5DF70"/>
<stop offset="0.8877" stop-color="#F5DA61"/>
<stop offset="0.9777" stop-color="#F6D44C"/>
<stop offset="1" stop-color="#F6D246"/>
</linearGradient>
</defs>
</svg>
