<svg xmlns="http://www.w3.org/2000/svg" xmlns:xlink="http://www.w3.org/1999/xlink">
   
    <symbol id="eye" width="24" height="24" viewBox="0 0 24 24" fill="none" xmlns="http://www.w3.org/2000/svg">
<path d="M2 12C2 12 5 5 12 5C19 5 22 12 22 12C22 12 19 19 12 19C5 19 2 12 2 12Z" stroke="#ABAEB8" stroke-width="2" stroke-linecap="round" stroke-linejoin="round"/>
<path d="M12 15C13.6569 15 15 13.6569 15 12C15 10.3431 13.6569 9 12 9C10.3431 9 9 10.3431 9 12C9 13.6569 10.3431 15 12 15Z" stroke="#ABAEB8" stroke-width="2" stroke-linecap="round" stroke-linejoin="round"/>
</symbol>

<symbol id="hideeye" width="24" height="24" viewBox="0 0 24 24" fill="none" xmlns="http://www.w3.org/2000/svg">
<path d="M2 12C2 12 5 5 12 5C19 5 22 12 22 12C22 12 19 19 12 19C5 19 2 12 2 12Z" stroke="#ABAEB8" stroke-width="2" stroke-linecap="round" stroke-linejoin="round"/>
<path d="M12 15C13.6569 15 15 13.6569 15 12C15 10.3431 13.6569 9 12 9C10.3431 9 9 10.3431 9 12C9 13.6569 10.3431 15 12 15Z" stroke="#ABAEB8" stroke-width="2" stroke-linecap="round" stroke-linejoin="round"/>
<line x1="4.08699" y1="3.79387" x2="21.1298" y2="20.8367" stroke="white" stroke-width="2"/>
<line x1="2.94441" y1="4.44475" x2="19.9873" y2="21.4876" stroke="#ABAEB8" stroke-width="2"/>
</symbol>

<symbol id="triangle" width="9" height="12" viewBox="0 0 9 12" fill="none" xmlns="http://www.w3.org/2000/svg">
<path d="M1.12248 5.18932L7.41451 0.645077C8.07584 0.167451 9 0.639986 9 1.45576V10.5442C9 11.36 8.07584 11.8325 7.41451 11.3549L1.12248 6.81068C0.5698 6.41152 0.569799 5.58848 1.12248 5.18932Z" fill="#EAEEFF"/>
</symbol>

<symbol id="check" width="15" height="12" viewBox="0 0 15 12" fill="none" xmlns="http://www.w3.org/2000/svg">
<path d="M1.3772 5.21429L5.66291 9.5L13.6629 1.5" stroke="#00FF75" stroke-width="3"/>
</symbol>
<symbol id="disc-fill"  width="11" height="11" viewBox="0 0 11 11" fill="none" xmlns="http://www.w3.org/2000/svg">
<rect x="0.377197" y="0.5" width="10" height="10" rx="5" fill="white"/>
</symbol>
<symbol id="disc" width="11" height="11" viewBox="0 0 11 11" fill="none" xmlns="http://www.w3.org/2000/svg">
<circle opacity="0.2" cx="5.3772" cy="5.5" r="5" fill="white"/>
</symbol>




<symbol id="backarrow" width="19" height="13" viewBox="0 0 19 13" fill="none" xmlns="http://www.w3.org/2000/svg">
<path d="M0.203681 7.07901L4.49285 12.1735C4.85118 12.567 5.41583 12.5989 5.78503 12.3011C6.16508 12.0033 6.21937 11.3971 5.91533 11.0355L2.86405 7.40871H18.077C18.5874 7.40871 19 7.00456 19 6.50468C19 6.00481 18.5874 5.60065 18.077 5.60065H2.86405L5.91533 1.97389C6.21937 1.60165 6.15422 1.00605 5.78503 0.697615C5.41583 0.378545 4.79689 0.46363 4.49285 0.825242L0.203681 5.93036C-0.0786438 6.31324 -0.0569265 6.70676 0.203681 7.07901Z" fill="#211F31"/>
</symbol>
<symbol id="success" width="116" height="107" viewBox="0 0 116 107" fill="none" xmlns="http://www.w3.org/2000/svg">
<path d="M52.1065 0.537576C48.2484 0.63538 44.3719 1.15182 40.5602 2.10813C12.2282 9.21712 -5.00818 38.0874 2.10081 66.4193C9.20969 94.7513 38.0376 111.988 66.3696 104.879C94.7015 97.77 111.938 68.9419 104.829 40.61C104.749 40.0429 104.551 39.499 104.247 39.0137C103.943 38.5284 103.54 38.1126 103.064 37.7934C102.589 37.4743 102.052 37.259 101.487 37.1614C100.923 37.0639 100.345 37.0863 99.7895 37.2273C99.2345 37.3684 98.7154 37.6248 98.2661 37.9798C97.8168 38.3349 97.4474 38.7807 97.1819 39.2881C96.9164 39.7955 96.7609 40.3531 96.7254 40.9246C96.6898 41.4962 96.7752 42.0688 96.9758 42.6052C103.013 66.6647 88.4341 90.9462 64.3744 96.9832C40.3149 103.02 15.9909 88.4838 9.95399 64.4241C3.91714 40.3646 18.4956 16.0406 42.5553 10.0038C55.4611 6.76545 69.1184 9.42155 79.8686 17.2627C80.2915 17.6454 80.79 17.9352 81.332 18.1131C81.8739 18.2911 82.4472 18.3533 83.0147 18.2958C83.5822 18.2382 84.1313 18.0622 84.6265 17.779C85.1217 17.4959 85.5519 17.112 85.8894 16.6521C86.2268 16.1922 86.464 15.6666 86.5855 15.1092C86.707 14.5519 86.7102 13.9753 86.5948 13.4167C86.4795 12.858 86.2481 12.3298 85.9157 11.8662C85.5834 11.4027 85.1574 11.0141 84.6654 10.7255C75.1405 3.77788 63.6806 0.242534 52.1065 0.537576ZM111.197 4.03657C110.141 4.10058 109.152 4.57241 108.438 5.35242C93.9869 20.4719 72.484 45.3355 57.2854 61.3678L37.1642 43.624C36.7628 43.2672 36.2951 42.9929 35.7878 42.8169C35.2804 42.6409 34.7434 42.5665 34.2073 42.598C33.6712 42.6296 33.1466 42.7665 32.6634 43.0007C32.1802 43.235 31.7478 43.5622 31.3911 43.9636C31.0343 44.3649 30.7601 44.8326 30.5841 45.3399C30.408 45.8473 30.3337 46.3844 30.3652 46.9205C30.3967 47.4565 30.5336 47.9812 30.7678 48.4644C31.0021 48.9476 31.3293 49.3799 31.7307 49.7367L54.8233 70.1125C55.6094 70.8136 56.6364 71.183 57.6889 71.1434C58.7415 71.1039 59.7378 70.6583 60.4691 69.9002C75.6514 54.0159 99.2917 26.6965 114.296 10.9983C114.883 10.4159 115.278 9.66873 115.431 8.85609C115.583 8.04345 115.484 7.20372 115.148 6.4484C114.812 5.69308 114.254 5.05782 113.548 4.62705C112.843 4.19627 112.023 3.99038 111.197 4.03657Z" fill="#149258"/>
</symbol>
<symbol id="notvalid" width="128" height="128" viewBox="0 0 128 128" fill="none" xmlns="http://www.w3.org/2000/svg">
<g clip-path="url(#clip0_307_6953)">
<path d="M62.4937 21.5867H54.4937V54.8667H32.667V62.8667H62.4937V21.5867Z" fill="#B37CFF"/>
<path d="M114.066 68.2267C116.271 56.2439 114.587 43.8699 109.259 32.9125C103.931 21.955 95.2393 12.9883 84.4529 7.32222C73.6665 1.6561 61.351 -0.412511 49.3053 1.41857C37.2596 3.24966 26.1151 8.88448 17.4997 17.4999C8.88424 26.1153 3.24941 37.2599 1.41833 49.3055C-0.412755 61.3512 1.65586 73.6668 7.32197 84.4532C12.9881 95.2395 21.9548 103.932 32.9122 109.259C43.8697 114.587 56.2436 116.272 68.2265 114.067C71.035 117.84 74.6231 120.964 78.7467 123.226C82.8704 125.489 87.4329 126.837 92.124 127.179C96.8151 127.521 101.525 126.849 105.933 125.208C110.341 123.567 114.344 120.996 117.67 117.67C120.996 114.345 123.567 110.341 125.208 105.933C126.848 101.525 127.521 96.8154 127.179 92.1242C126.837 87.4331 125.489 82.8706 123.226 78.747C120.964 74.6233 117.84 71.0352 114.066 68.2267ZM57.8932 107.013C48.1781 107.013 38.6813 104.133 30.6035 98.7352C22.5258 93.3378 16.23 85.6663 12.5122 76.6908C8.79442 67.7153 7.82168 57.8389 9.71698 48.3106C11.6123 38.7822 16.2905 30.0299 23.1601 23.1603C30.0296 16.2908 38.782 11.6125 48.3103 9.71723C57.8387 7.82192 67.7151 8.79466 76.6906 12.5124C85.6661 16.2302 93.3376 22.526 98.7349 30.6038C104.132 38.6815 107.013 48.1784 107.013 57.8934C107.023 59.9341 106.907 61.9736 106.666 64.0001C100.701 61.5754 94.1527 60.9635 87.8411 62.2408C81.5295 63.5181 75.7346 66.6279 71.1812 71.1814C66.6277 75.7348 63.5178 81.5298 62.2405 87.8414C60.9632 94.153 61.5752 100.701 63.9998 106.667C61.9733 106.908 59.9339 107.023 57.8932 107.013ZM94.4531 119.227C89.5529 119.227 84.7627 117.773 80.6884 115.051C76.6142 112.328 73.4389 108.458 71.5643 103.931C69.6897 99.4032 69.1999 94.4214 70.1568 89.6154C71.1138 84.8095 73.4745 80.3954 76.9405 76.9313C80.4064 73.4672 84.8219 71.1088 89.6283 70.1545C94.4347 69.2001 99.4162 69.6926 103.943 71.5697C108.469 73.4467 112.337 76.6241 115.058 80.6998C117.778 84.7755 119.229 89.5665 119.226 94.4667C119.216 101.03 116.604 107.322 111.963 111.963C107.322 116.604 101.03 119.216 94.4665 119.227H94.4531Z" fill="#DEBFFA"/>
<circle cx="94" cy="94.5" r="28.5" stroke="#F5C8DF" stroke-width="9"/>
<path d="M98.4668 77.2935H90.4668V102.293H98.4668V77.2935Z" fill="#D93C65"/>
<path d="M98.4668 105.293H90.4668V112.96H98.4668V105.293Z" fill="#D93C65"/>
</g>
<defs>
<clipPath id="clip0_307_6953">
<rect width="128" height="128" fill="white"/>
</clipPath>
</defs>
</symbol>
<symbol id="rightarrow" width="8" height="13" viewBox="0 0 8 13" fill="none"  xmlns="http://www.w3.org/2000/svg">
<path d="M1 1.60107L6 6.60107L1 11.6011" stroke="#3689F5" stroke-width="2"/>
</symbol>
<symbol id="delete" width="24" height="24" viewBox="0 0 24 24" fill="none" xmlns="http://www.w3.org/2000/svg">
  <path d="M3 6h18" stroke="#000" stroke-width="2"/>
  <path d="M8 6V4h8v2M5 6v14c0 1.1.9 2 2 2h10c1.1 0 2-.9 2-2V6H5z" stroke="#000" stroke-width="2"/>
</symbol>




</svg>






