<svg width="13" height="18" viewBox="0 0 13 18" fill="none" xmlns="http://www.w3.org/2000/svg">
<g clip-path="url(#clip0_1531_13314)">
<path d="M12.8571 4.93013V16.8404C12.8571 17.4809 12.3448 18 11.7135 18H1.14366C0.511987 18 0 17.4809 0 16.8404V1.15959C0 0.519094 0.511987 0 1.14366 0H7.99495L12.8571 4.93013Z" fill="#518EF8"/>
<path d="M9.71577 9.03711H3.14111V9.77797H9.71577V9.03711Z" fill="white"/>
<path d="M9.71577 10.6914H3.14111V11.4321H9.71577V10.6914Z" fill="white"/>
<path d="M9.71577 12.3457H3.14111V13.0864H9.71577V12.3457Z" fill="white"/>
<path d="M7.81677 14H3.14111V14.7409H7.81677V14Z" fill="white"/>
<path d="M8.65833 4.8233L12.8571 6.57727V4.93041L10.4764 4.21777L8.65833 4.8233Z" fill="#3A5BBC"/>
<path d="M12.8572 4.93012H9.13861C8.50675 4.93012 7.995 4.41103 7.995 3.77053V0L12.8572 4.93012Z" fill="#ACD1FC"/>
</g>
<defs>
<clipPath id="clip0_1531_13314">
<rect width="12.8571" height="18" fill="white"/>
</clipPath>
</defs>
</svg>
